<?xml version="1.0" standalone="no"?>
<!DOCTYPE svg PUBLIC "-//W3C//DTD SVG 20010904//EN"
 "http://www.w3.org/TR/2001/REC-SVG-20010904/DTD/svg10.dtd">
<svg version="1.0" xmlns="http://www.w3.org/2000/svg"
 width="1482.000000pt" height="1482.000000pt" viewBox="0 0 1482.000000 1482.000000"
 preserveAspectRatio="xMidYMid meet">
<metadata>
Created by potrace 1.14, written by Peter Selinger 2001-2017
</metadata>
<g transform="translate(0.000000,1482.000000) scale(0.100000,-0.100000)"
fill="#000000" stroke="none">
<path d="M6710 13363 c0 -47 -10 -67 -36 -80 -21 -10 -31 -9 -57 8 -39 23
-201 28 -210 6 -3 -7 -23 -19 -46 -25 -27 -8 -52 -26 -72 -52 -21 -26 -41 -40
-55 -40 -12 0 -35 -5 -50 -10 -39 -15 -104 -81 -104 -106 0 -12 -9 -43 -21
-68 -19 -43 -19 -49 -5 -71 20 -31 97 -49 170 -40 51 7 56 9 56 32 0 24 2 25
38 19 39 -7 74 -38 66 -59 -2 -7 -18 -20 -34 -29 -17 -10 -30 -25 -30 -36 0
-11 -9 -31 -20 -45 -25 -32 -25 -38 1 -60 12 -11 18 -25 15 -35 -10 -30 28
-79 68 -86 62 -12 80 -86 26 -105 -17 -5 -34 -21 -40 -35 -5 -14 -18 -30 -30
-36 -27 -15 -25 -36 5 -56 14 -9 31 -26 36 -37 11 -19 9 -19 -37 -13 -64 10
-93 29 -113 77 -11 27 -24 41 -41 45 -14 3 -35 10 -48 15 -13 5 -36 9 -52 9
-26 0 -30 5 -40 43 -24 98 -32 117 -50 127 -27 14 -60 12 -66 -4 -7 -18 28
-85 56 -109 12 -10 20 -27 18 -39 -4 -30 -26 -34 -30 -6 -2 18 -11 24 -38 28
-30 4 -35 9 -38 35 -2 17 -14 39 -27 50 -13 11 -33 44 -45 73 -19 49 -19 53
-2 58 9 3 27 10 40 15 17 7 27 4 43 -12 23 -23 49 -19 49 9 0 10 11 24 25 30
19 9 25 19 25 41 0 70 -40 101 -130 101 -25 0 -47 9 -73 31 -20 16 -51 33 -70
36 -29 4 -38 -1 -86 -48 l-54 -53 -49 28 c-30 17 -58 26 -71 23 -12 -3 -83 -2
-157 2 -75 5 -139 4 -145 -1 -6 -5 1 -18 18 -34 30 -27 33 -41 16 -78 -20 -43
-38 -40 -59 9 -16 38 -23 45 -48 45 -16 0 -43 -5 -60 -11 -25 -9 -36 -8 -54 5
-12 9 -34 16 -49 16 -30 0 -57 -24 -39 -35 20 -12 10 -31 -22 -42 -19 -7 -68
-10 -115 -8 -81 4 -83 4 -102 -24 -11 -16 -33 -31 -48 -35 -19 -4 -37 -21 -57
-52 -16 -25 -40 -50 -55 -55 -14 -5 -35 -13 -46 -18 -11 -5 -32 -13 -47 -20
-16 -6 -28 -17 -28 -25 0 -8 -10 -16 -21 -18 -12 -2 -27 -12 -33 -23 -6 -11
-23 -35 -38 -53 -16 -18 -28 -36 -28 -40 0 -16 25 -32 50 -32 14 0 42 -12 63
-26 32 -21 38 -30 35 -56 -2 -20 -13 -38 -30 -51 -26 -20 -27 -20 -54 -1 -15
10 -35 24 -45 30 -10 6 -27 19 -38 28 -18 17 -21 16 -59 -3 -22 -11 -43 -30
-47 -41 -3 -11 -22 -38 -41 -61 -19 -22 -34 -50 -34 -61 0 -22 50 -73 80 -83
11 -3 20 -17 22 -33 2 -16 10 -28 21 -30 24 -5 97 44 97 65 0 24 51 121 77
145 19 18 26 19 54 9 59 -20 77 -38 84 -81 4 -23 13 -44 21 -47 18 -7 78 31
98 62 22 33 64 33 100 0 40 -37 32 -61 -31 -102 -13 -9 -31 -29 -39 -44 -17
-34 -46 -37 -88 -10 -39 26 -56 17 -56 -30 0 -50 -13 -50 -66 2 l-42 41 -44
-45 c-66 -70 -158 -100 -303 -101 -102 -1 -113 -3 -152 -29 -26 -16 -49 -41
-57 -62 -17 -41 -52 -47 -81 -15 -13 15 -31 20 -65 20 -67 0 -101 -15 -133
-61 -15 -22 -38 -45 -52 -51 -13 -6 -27 -18 -30 -26 -10 -27 11 -34 48 -16 41
20 58 14 33 -11 -9 -9 -16 -22 -16 -29 0 -21 -45 -56 -73 -56 -14 0 -43 -11
-63 -25 -20 -14 -42 -25 -49 -25 -7 0 -18 -7 -25 -16 -8 -8 -28 -21 -47 -29
-37 -16 -40 -32 -17 -77 18 -34 18 -34 -33 -64 -14 -9 -18 -24 -18 -65 0 -30
-7 -67 -15 -83 -13 -27 -13 -29 10 -47 52 -40 51 -38 35 -69 -18 -35 -66 -48
-117 -31 -51 17 -138 17 -149 0 -13 -21 -10 -60 6 -89 19 -33 19 -37 -5 -50
-33 -18 -60 4 -60 47 0 28 -8 43 -35 69 -36 36 -57 41 -100 24 -19 -7 -40 -7
-67 0 -81 22 -180 -37 -118 -70 14 -8 20 -21 20 -45 0 -40 -22 -48 -40 -15 -6
11 -17 20 -24 20 -19 0 -57 -45 -57 -66 1 -17 7 -87 10 -106 2 -10 88 -58 105
-58 20 0 29 -16 21 -40 -8 -25 -36 -33 -69 -20 -38 14 -119 102 -131 141 -16
51 -36 57 -79 23 -36 -28 -37 -31 -32 -75 5 -37 2 -51 -13 -70 -28 -35 -46
-13 -46 58 0 75 -19 89 -68 46 -33 -29 -38 -30 -115 -28 -71 2 -84 5 -112 28
-53 45 -75 34 -64 -33 5 -28 20 -57 45 -87 26 -29 39 -54 39 -73 0 -16 10 -41
23 -56 23 -27 24 -27 68 -13 30 10 43 19 40 29 -13 49 -12 67 5 74 10 4 24 1
33 -9 13 -12 13 -20 3 -49 -9 -24 -9 -41 -2 -60 17 -45 12 -123 -10 -167 -13
-24 -18 -48 -15 -60 4 -13 0 -28 -11 -40 -9 -10 -14 -19 -9 -19 24 0 -24 -31
-68 -45 -29 -8 -68 -28 -87 -44 -33 -28 -34 -30 -17 -48 22 -25 22 -38 -3 -54
-15 -10 -21 -26 -23 -59 -2 -41 0 -45 23 -48 30 -5 50 -20 50 -38 0 -10 -13
-14 -45 -14 -38 0 -48 -5 -71 -33 -14 -18 -34 -57 -44 -85 l-19 -53 37 -23
c85 -53 104 -55 150 -13 15 14 22 32 22 59 0 29 8 50 32 79 46 58 58 52 58
-29 0 -83 -23 -159 -57 -188 -38 -32 -27 -58 26 -64 45 -5 52 -12 67 -64 10
-34 27 -37 32 -6 4 21 10 23 54 20 22 -1 30 5 42 34 10 23 23 37 41 42 37 9
40 0 16 -45 -27 -54 -44 -161 -31 -196 12 -33 13 -91 1 -113 -5 -9 -11 -33
-12 -52 -3 -30 0 -37 24 -48 46 -22 25 -92 -28 -92 -10 0 -23 -8 -30 -17 -20
-28 -66 -7 -77 35 -5 17 -14 32 -20 32 -6 0 -37 12 -69 26 -54 25 -62 26 -103
14 -45 -12 -106 -6 -106 11 0 5 9 9 20 9 13 0 24 10 30 25 10 25 15 28 60 29
47 2 34 31 -24 55 -59 24 -86 19 -115 -22 -7 -10 -28 -26 -45 -34 -17 -8 -47
-23 -66 -34 -20 -11 -48 -17 -65 -15 -40 5 -62 -8 -70 -41 -11 -52 -29 -65
-87 -65 -29 0 -68 3 -86 7 -29 7 -36 3 -67 -31 -19 -21 -35 -48 -35 -61 0 -31
44 -52 114 -54 31 -1 59 -5 61 -9 2 -4 -14 -15 -36 -25 -23 -11 -53 -37 -71
-61 -17 -24 -44 -47 -59 -53 -32 -11 -36 -26 -14 -55 18 -24 19 -37 2 -60 -12
-16 -17 -16 -80 -2 -66 15 -68 15 -101 -6 -36 -24 -62 -83 -51 -118 3 -10 -1
-33 -10 -51 -11 -21 -15 -43 -10 -66 4 -25 1 -42 -11 -61 -16 -25 -16 -26 6
-44 13 -10 38 -18 61 -18 21 0 41 -4 44 -10 14 -23 98 -2 109 27 3 7 -3 22
-14 33 -16 16 -25 18 -40 10 -23 -12 -40 -6 -40 16 0 9 10 14 29 14 15 0 41
10 56 22 16 12 44 23 64 25 20 1 38 8 40 14 2 7 19 29 38 50 47 52 79 52 133
0 l40 -39 -23 -29 c-13 -15 -29 -38 -36 -50 -6 -13 -25 -30 -41 -38 -40 -21
-38 -47 9 -103 21 -26 44 -57 50 -70 10 -19 9 -23 -14 -34 -16 -7 -25 -19 -25
-34 0 -42 -21 -78 -76 -131 l-54 -53 0 -62 c0 -93 22 -139 87 -185 83 -58 115
-73 151 -73 31 0 45 -21 22 -35 -5 -3 -10 -17 -10 -30 0 -14 -14 -44 -30 -67
-46 -65 -48 -101 -12 -181 31 -67 31 -68 15 -111 -15 -41 -15 -46 0 -70 19
-28 46 -33 76 -14 48 30 66 -23 31 -92 -22 -44 -26 -100 -8 -118 7 -7 28 -12
48 -12 44 0 60 -15 60 -56 0 -17 7 -37 15 -44 20 -17 49 -9 53 15 6 28 21 45
42 45 31 0 39 -52 18 -122 -11 -37 -10 -40 18 -68 16 -16 37 -39 48 -51 16
-19 25 -21 79 -14 34 3 69 11 78 16 10 5 26 35 36 66 11 32 23 57 28 56 4 -1
18 -28 31 -59 30 -74 38 -81 60 -55 11 12 30 21 46 21 39 0 46 20 15 44 l-27
22 25 37 c22 32 31 37 64 37 40 0 80 -28 53 -38 -33 -11 -44 -35 -38 -81 21
-158 22 -146 -18 -173 -58 -40 -126 -149 -137 -222 -10 -57 -9 -62 12 -79 35
-28 61 -18 86 35 14 29 34 53 52 63 41 21 45 19 58 -15 14 -39 41 -39 77 -1
29 30 30 61 3 61 -23 0 -37 21 -26 42 15 29 31 22 84 -37 28 -30 54 -55 58
-55 5 0 21 -9 35 -20 15 -12 51 -36 80 -55 57 -37 62 -37 124 7 13 10 20 9 35
-4 10 -9 30 -19 45 -23 14 -4 34 -15 44 -26 21 -24 105 -27 124 -5 6 9 10 37
9 68 l-3 53 33 3 c21 2 40 -3 52 -14 17 -15 24 -16 53 -6 18 7 40 12 49 12 21
0 22 23 3 53 -21 34 -39 118 -27 130 14 14 58 -17 82 -58 11 -19 30 -37 42
-41 12 -4 36 -17 53 -30 23 -18 33 -21 42 -12 19 19 14 46 -12 63 -13 9 -29
29 -36 45 -11 25 -9 34 10 67 13 21 40 54 60 73 20 19 39 42 42 50 4 12 9 13
26 3 27 -16 43 -9 71 27 29 40 69 39 127 -1 34 -23 44 -35 38 -47 -29 -70 -29
-70 -6 -117 12 -25 22 -58 22 -74 0 -32 22 -56 45 -47 10 4 13 14 9 35 -6 26
-3 32 22 43 45 20 46 30 5 70 -37 35 -51 71 -43 110 2 12 15 18 44 20 52 4 67
25 50 70 -11 30 -10 35 9 51 30 24 63 18 67 -11 5 -33 26 -37 64 -14 22 13 44
18 69 15 24 -3 39 0 48 11 8 9 20 16 28 16 27 0 93 -40 110 -68 24 -36 33 -42
63 -35 45 9 320 -145 379 -212 16 -19 42 -69 58 -111 20 -56 39 -88 66 -113
48 -45 130 -147 149 -186 8 -16 18 -50 22 -74 4 -24 15 -62 25 -85 10 -22 26
-79 36 -125 19 -84 19 -84 -3 -195 -17 -82 -22 -146 -22 -243 0 -72 -5 -144
-10 -159 -6 -15 -34 -53 -64 -84 -65 -71 -86 -114 -86 -177 0 -57 18 -91 100
-183 31 -36 62 -74 68 -86 6 -11 22 -78 37 -148 54 -270 194 -604 304 -728 32
-37 62 -81 66 -97 3 -16 24 -50 46 -74 45 -52 50 -87 16 -121 -19 -19 -37 -24
-109 -29 -48 -3 -124 -17 -170 -31 -46 -13 -110 -30 -143 -36 -33 -7 -82 -20
-110 -30 -27 -10 -84 -21 -125 -24 -41 -4 -117 -16 -167 -27 -51 -10 -119 -19
-150 -19 -79 0 -315 -36 -360 -55 -33 -14 -35 -17 -22 -31 19 -19 184 -48 449
-79 242 -29 369 -32 448 -9 77 23 175 14 447 -38 l220 -43 955 -3 c599 -2
1011 1 1105 8 83 5 240 17 350 25 110 8 253 15 319 15 117 0 119 0 153 -30 61
-54 157 -35 238 45 19 20 35 39 35 44 0 9 -88 66 -117 75 -10 3 -121 22 -247
41 -256 39 -302 49 -309 68 -3 7 3 58 14 113 33 176 22 491 -20 578 -11 22
-51 73 -89 112 -60 62 -81 76 -160 109 -51 21 -95 43 -100 49 -16 22 -54 128
-54 150 0 12 5 54 11 93 12 70 4 140 -20 169 -4 5 -10 53 -11 104 -3 83 -5 95
-22 98 -10 2 -32 -9 -51 -28 -32 -31 -33 -31 -40 -11 -7 24 -27 27 -45 7 -7
-9 -28 -14 -53 -13 -51 1 -177 -20 -193 -34 -14 -12 -34 -86 -34 -129 0 -28 5
-34 40 -47 29 -12 42 -24 49 -47 24 -80 24 -82 -28 -143 -27 -33 -55 -72 -64
-89 -16 -30 -64 -81 -70 -73 -37 45 -147 244 -147 264 0 15 -9 38 -20 52 -11
14 -20 40 -20 57 0 27 -6 35 -44 56 -50 27 -64 22 -92 -31 -21 -42 -17 -75 15
-112 21 -23 55 -103 115 -273 l86 -239 89 -85 c49 -47 92 -96 96 -110 11 -38
74 -159 106 -207 35 -50 35 -68 6 -198 l-23 -100 -79 1 c-63 1 -98 8 -165 34
-47 17 -139 42 -205 56 -90 18 -143 35 -210 69 -50 24 -138 58 -195 76 -58 17
-130 44 -161 60 -78 42 -173 121 -210 177 -18 26 -80 94 -139 152 -89 88 -207
221 -329 372 -12 16 -32 63 -42 105 -11 42 -48 142 -83 222 -35 80 -70 173
-77 206 -11 57 -11 64 14 120 14 33 31 87 37 120 6 33 20 87 30 120 10 33 23
78 29 100 6 23 29 65 51 95 40 53 60 103 60 148 0 34 16 60 80 127 31 33 65
76 75 95 9 19 23 42 30 50 7 8 32 51 55 95 24 44 57 97 74 118 29 37 30 41 31
147 l1 110 50 71 c84 122 176 183 299 198 109 13 255 46 291 64 16 8 43 30 59
47 36 38 66 55 145 79 35 11 79 35 107 58 27 22 67 52 90 66 23 15 57 44 75
64 106 121 275 265 368 314 25 12 70 37 100 55 115 66 349 95 399 50 27 -25
16 -50 -20 -42 -35 7 -51 -12 -47 -56 l3 -33 68 -1 c59 -1 72 -5 95 -27 32
-30 113 -67 148 -67 21 0 23 -2 12 -19 -9 -15 -8 -24 5 -45 23 -34 61 -43 103
-23 37 18 40 27 23 59 -10 19 -9 20 22 15 26 -4 43 1 72 21 l38 25 47 -23 c55
-27 92 -58 92 -77 0 -8 7 -28 16 -45 15 -29 15 -32 -4 -51 l-20 -20 -35 22
c-19 11 -48 21 -65 21 -28 0 -32 -4 -38 -36 -5 -28 -2 -38 12 -50 18 -13 18
-15 1 -28 -24 -19 -21 -36 14 -73 32 -35 48 -39 80 -22 16 8 20 19 17 47 -5
60 35 53 67 -12 8 -17 21 -21 58 -23 27 -1 65 -11 86 -22 48 -24 61 -14 61 50
0 55 15 71 58 63 24 -5 36 -1 54 18 13 13 35 31 50 41 19 12 25 22 21 38 -4
15 2 27 22 43 26 21 27 23 10 40 -16 15 -17 23 -7 50 7 18 12 38 12 44 0 19
-32 14 -57 -10 l-23 -22 -30 33 c-26 27 -35 32 -60 26 -42 -9 -66 1 -80 35
-10 25 -16 28 -41 23 -17 -3 -29 -1 -29 5 0 17 22 26 60 27 32 0 35 3 41 37 3
20 13 48 23 63 16 25 22 26 62 20 36 -5 50 -2 77 16 17 13 35 27 38 31 3 5 28
17 55 27 27 10 81 31 121 46 l71 27 37 -28 c43 -32 55 -59 55 -118 0 -56 -17
-104 -39 -111 -41 -13 -54 -100 -21 -142 17 -22 44 -93 37 -99 -1 0 -29 -10
-61 -21 -79 -25 -87 -40 -51 -87 25 -33 33 -37 58 -32 37 7 105 -12 117 -33 7
-14 2 -16 -29 -16 -75 0 -117 -58 -71 -100 14 -12 27 -16 47 -11 66 16 68 15
65 -33 -4 -48 10 -66 39 -51 12 7 22 3 39 -15 13 -14 31 -25 39 -25 9 0 29 -7
45 -15 18 -9 41 -13 57 -10 19 4 28 1 32 -9 8 -20 24 -20 44 -1 35 35 63 -7
44 -67 -7 -24 -14 -56 -14 -73 -2 -26 3 -31 31 -40 20 -6 32 -16 32 -27 0 -32
-31 -83 -61 -100 -30 -18 -40 -48 -15 -48 7 0 19 7 26 15 16 19 40 19 68 -1
21 -14 27 -14 60 -1 23 9 45 12 59 6 36 -13 63 0 63 31 0 24 5 30 32 35 26 6
35 3 50 -15 10 -12 18 -28 18 -36 0 -24 20 -26 55 -4 48 29 61 91 25 111 -29
16 -105 47 -124 50 -34 7 -28 27 14 54 22 14 44 34 47 43 3 9 15 24 26 33 18
14 18 19 6 52 -10 29 -10 42 -1 63 11 22 17 25 40 19 15 -4 46 -8 69 -9 48 -3
70 -19 113 -85 l30 -45 -47 -25 c-33 -19 -49 -34 -55 -55 -4 -16 -19 -39 -34
-51 -25 -20 -26 -24 -15 -56 32 -92 83 -129 152 -109 25 7 38 6 56 -5 26 -18
63 -20 63 -4 0 7 12 9 34 5 25 -5 43 -1 70 15 20 11 36 25 36 29 0 5 25 6 55
3 49 -5 59 -3 105 27 33 21 58 30 71 27 15 -4 30 3 51 24 34 34 53 37 68 10 5
-11 23 -22 40 -25 16 -3 44 -9 60 -12 25 -5 36 0 65 29 33 33 35 39 35 98 0
72 4 79 43 96 20 10 27 20 27 40 0 47 -14 58 -72 58 -52 0 -53 1 -56 31 -2 24
-12 36 -45 54 -74 42 -111 71 -131 101 -22 35 -68 61 -91 53 -9 -4 -20 -17
-25 -30 -12 -31 -94 -78 -123 -70 -30 7 -107 67 -107 83 0 8 7 16 15 19 28 11
36 40 20 71 -8 15 -15 42 -15 60 0 25 6 35 32 47 38 19 45 15 24 -16 -9 -12
-16 -30 -16 -40 0 -24 21 -34 32 -14 7 12 18 15 49 10 33 -6 39 -4 39 11 0 10
-8 27 -17 37 -26 29 -4 40 79 42 l73 1 10 33 c9 33 28 42 42 20 13 -23 2 -62
-24 -84 -21 -17 -25 -26 -19 -48 7 -27 8 -28 59 -21 29 4 63 14 76 23 13 10
31 22 40 27 38 22 101 83 101 96 0 16 -117 156 -143 170 -28 16 -50 79 -51
145 l-1 62 63 5 c35 4 75 2 90 -4 19 -8 38 -7 65 2 46 15 60 3 47 -42 -10 -33
-2 -99 11 -99 5 0 9 8 9 18 0 26 11 34 27 21 24 -21 13 -51 -34 -95 l-47 -43
21 -23 c38 -42 55 -90 63 -176 8 -91 21 -112 66 -112 12 0 33 -9 47 -20 23
-18 28 -19 60 -5 26 11 48 12 88 6 29 -5 55 -13 56 -17 15 -43 31 -59 63 -64
32 -5 35 -8 33 -35 -1 -16 -4 -41 -8 -55 -5 -21 -1 -30 26 -49 l32 -24 26 31
c14 16 40 37 57 46 30 15 32 14 59 -14 16 -17 32 -30 37 -30 13 0 9 62 -6 79
-17 21 -36 77 -36 110 0 38 -63 78 -97 62 -25 -11 -27 -25 -12 -81 3 -11 -6
-16 -35 -18 l-39 -3 6 38 c5 27 2 46 -9 61 -14 20 -14 24 0 44 23 32 20 48
-15 84 -29 30 -31 35 -20 65 9 27 8 35 -6 51 -16 18 -16 21 1 51 10 18 32 44
49 58 33 29 30 49 -9 49 -28 0 -34 30 -9 50 23 19 47 7 69 -35 14 -26 34 -47
59 -58 32 -16 37 -23 37 -52 0 -24 6 -38 20 -45 28 -15 40 -5 40 34 0 19 6 39
14 45 8 6 20 26 27 44 7 18 23 45 36 60 25 30 32 97 11 97 -6 0 -22 -10 -34
-21 l-23 -22 -45 27 c-28 16 -46 34 -46 45 0 28 -23 41 -62 35 -50 -9 -78 9
-78 49 0 42 -24 108 -44 122 -24 18 -19 31 17 44 79 29 82 33 82 92 0 52 20
119 35 119 4 0 15 -9 25 -20 18 -20 18 -22 2 -49 -10 -18 -17 -50 -17 -84 0
-61 12 -73 56 -57 21 8 31 6 57 -14 45 -33 76 -41 83 -21 4 9 -1 24 -11 35
-17 19 -17 21 8 57 15 21 33 47 41 58 7 11 16 57 19 101 7 99 -1 114 -69 125
-67 10 -152 35 -191 56 -26 14 -38 15 -67 6 -20 -6 -38 -8 -40 -4 -3 4 8 23
25 42 29 34 37 59 20 59 -25 0 -20 43 12 107 43 86 53 113 67 191 22 123 -22
236 -121 306 -38 28 -49 42 -49 63 0 28 -14 43 -144 156 -43 37 -42 57 3 57
35 0 51 17 51 55 0 17 5 36 11 42 6 6 9 21 7 34 -2 18 -10 25 -33 27 -36 3
-121 -57 -136 -96 -8 -21 -13 -23 -52 -17 -43 7 -92 35 -115 67 -7 10 -26 25
-42 33 -32 17 -65 69 -54 86 8 13 70 3 100 -16 18 -12 28 -10 82 16 34 16 68
29 76 29 32 0 28 24 -7 54 -41 34 -45 54 -21 91 9 13 13 32 10 42 -4 14 6 29
38 56 25 20 51 37 59 37 8 0 24 -16 36 -35 22 -38 35 -42 76 -23 23 10 26 17
21 41 -4 21 2 46 18 81 37 76 37 90 1 94 -42 5 -81 36 -111 88 -24 41 -30 45
-53 38 -42 -12 -71 -7 -95 15 -28 27 -56 27 -90 0 -30 -24 -60 -13 -31 11 19
15 19 47 0 80 -19 33 -19 65 1 95 13 21 14 27 1 52 -8 15 -18 51 -22 78 -8 60
-19 81 -46 96 -17 9 -25 7 -45 -12 -21 -20 -29 -21 -86 -14 -35 4 -76 9 -93
11 -16 2 -41 6 -55 9 -40 10 -80 -10 -80 -40 0 -14 -11 -37 -25 -50 -40 -41
-83 -29 -77 21 2 11 -10 37 -26 57 -16 20 -35 50 -42 67 -15 35 -73 70 -119
70 -20 0 -37 9 -55 30 -32 39 -77 56 -105 40 -25 -13 -26 -28 -5 -59 11 -15
14 -33 10 -52 -7 -34 17 -89 38 -89 7 0 19 -7 26 -15 10 -12 9 -16 -3 -21 -24
-9 -29 -34 -12 -60 20 -31 19 -44 -3 -44 -29 0 -59 27 -65 59 -4 17 -14 32
-27 36 -23 7 -25 22 -5 49 14 18 11 23 -39 70 -71 66 -120 96 -157 96 -33 0
-48 22 -29 45 7 9 10 26 6 40 -4 14 -1 43 5 65 10 33 9 47 -6 85 -16 45 -16
47 1 60 11 8 25 15 31 15 7 0 20 11 29 25 9 14 26 28 38 31 20 5 142 -19 154
-30 3 -3 0 -17 -6 -30 -18 -40 1 -91 53 -141 43 -43 48 -45 64 -31 25 22 30
21 67 -19 35 -39 60 -39 70 1 5 20 -3 33 -45 72 -49 46 -62 74 -41 87 5 3 22
-3 38 -15 15 -11 35 -18 44 -15 21 8 43 80 43 145 l0 55 -39 5 c-45 6 -57 23
-27 40 12 6 21 19 21 30 0 11 12 26 29 35 32 16 47 47 34 67 -4 7 -8 31 -8 54
-1 48 -57 144 -85 144 -10 0 -23 7 -30 15 -19 23 -52 18 -93 -16 -20 -17 -45
-29 -54 -27 -9 2 -32 23 -51 48 -19 25 -38 47 -44 48 -5 3 -8 -27 -6 -70 l3
-73 37 3 c34 3 38 1 53 -33 8 -21 15 -39 15 -41 0 -11 -26 -1 -52 21 -16 14
-42 25 -57 25 -14 0 -34 8 -43 18 -9 9 -40 35 -68 57 -53 41 -53 41 -29 102
12 29 11 37 -4 62 -22 38 -21 54 3 76 11 10 20 27 20 38 0 17 -5 19 -40 13
-22 -3 -40 -3 -40 0 0 3 19 23 42 44 42 37 42 37 44 112 1 42 5 85 9 97 4 14
-1 30 -14 47 -12 15 -21 40 -21 56 0 45 -28 77 -94 109 -34 16 -69 35 -78 42
-40 31 -26 106 22 117 15 3 31 19 40 37 8 17 30 44 48 61 24 23 32 38 32 65 0
43 -18 59 -57 51 -31 -6 -34 -2 -57 69 -10 31 -46 19 -99 -33 -57 -56 -73 -61
-86 -26 -5 13 -17 26 -25 29 -9 4 -16 13 -16 22 0 19 9 19 32 -2 27 -24 46 -3
29 33 -11 26 -13 26 -77 19 -51 -5 -70 -3 -89 9 -13 9 -35 16 -48 16 -13 0
-33 11 -45 25 -12 14 -28 25 -36 25 -7 0 -19 7 -26 15 -7 8 -27 15 -46 15 -36
0 -44 7 -74 58 -14 23 -27 32 -45 32 -14 0 -37 7 -51 16 -21 14 -31 15 -63 5
-21 -6 -48 -11 -59 -11 -12 0 -29 -11 -38 -25 -21 -32 -42 -32 -54 0 -19 50
-97 41 -139 -16 -27 -36 -39 -36 -99 1 -27 17 -56 30 -65 30 -20 0 -47 -38
-47 -67 0 -15 -10 -28 -30 -38 -16 -9 -30 -19 -30 -23 0 -4 -14 -16 -31 -26
-33 -20 -49 -12 -49 25 0 25 -26 30 -69 13 -36 -14 -42 -14 -70 0 -16 9 -42
16 -57 16 -26 0 -107 58 -151 108 -17 20 -33 26 -73 28 -28 2 -55 6 -61 10 -5
3 -21 -2 -36 -11 -22 -15 -29 -15 -50 -4 -31 17 -44 0 -36 -49 6 -34 6 -34
-25 -27 -25 5 -40 1 -76 -24 -25 -17 -51 -31 -59 -31 -19 0 -40 26 -44 53 -2
12 -12 33 -22 47 -15 20 -27 25 -72 26 -85 3 -91 0 -84 -51 5 -29 3 -45 -6
-50 -15 -10 -49 29 -49 55 0 21 -26 44 -65 57 -29 10 -30 12 -26 59 2 36 -3
60 -22 99 -14 27 -30 62 -36 78 -8 19 -18 27 -35 27 -14 0 -28 -4 -31 -10 -11
-18 -34 -10 -47 17 -11 22 -31 32 -128 63 -139 44 -158 54 -166 85 -7 29 -30
32 -56 8 -18 -16 -21 -15 -56 19 -42 41 -113 71 -119 51 -3 -7 -14 -24 -25
-38 -19 -24 -22 -25 -44 -10 -13 8 -32 15 -43 15 -11 0 -35 9 -53 20 -18 11
-41 20 -50 20 -9 0 -26 14 -38 30 -22 31 -57 39 -77 19 -7 -7 -32 -9 -72 -4
l-61 7 0 34 c0 27 -4 34 -20 34 -15 0 -20 -7 -20 -27z m137 -442 c7 -24 18
-50 25 -58 10 -13 9 -15 -7 -12 -11 2 -25 15 -32 29 -6 13 -22 32 -34 41 -28
21 -19 52 13 47 17 -2 25 -14 35 -47z m662 23 c31 -12 43 -24 52 -51 13 -42 3
-56 -37 -51 -22 2 -33 12 -46 38 -16 33 -24 80 -13 80 2 0 22 -7 44 -16z m165
-69 c11 -17 26 -25 45 -25 54 0 67 -51 17 -70 -13 -5 -27 -14 -31 -20 -10 -16
-73 49 -81 83 -5 26 8 57 26 57 4 0 15 -11 24 -25z m-844 -106 c14 -18 31 -29
52 -31 30 -3 34 -8 49 -58 19 -62 16 -80 -14 -80 -33 0 -156 106 -157 136 0 6
-7 17 -15 24 -21 17 -19 29 7 39 32 12 55 3 78 -30z m-1778 -18 c9 -8 33 -99
27 -104 -2 -2 -31 -2 -64 0 -47 4 -67 11 -95 34 l-34 29 34 29 c31 26 41 29
80 24 25 -3 48 -8 52 -12z m406 -39 c-5 -28 -27 -24 -47 9 -11 18 -18 36 -15
41 8 13 65 -32 62 -50z m1674 38 c53 0 45 -66 -12 -95 -42 -22 -62 -19 -59 8
3 28 -9 67 -22 67 -5 0 -9 7 -9 16 0 14 7 15 38 10 20 -3 49 -6 64 -6z m-586
-80 c29 0 63 -45 46 -62 -7 -7 -14 -4 -21 11 -14 25 -41 27 -82 6 -33 -17 -49
-13 -49 14 0 28 22 43 54 37 16 -3 39 -6 52 -6z m1518 -92 c14 -19 14 -24 2
-36 -22 -23 -66 -7 -66 22 0 39 41 48 64 14z m620 -1 c16 -12 17 -16 5 -35
-11 -17 -11 -24 -1 -34 17 -17 15 -48 -4 -48 -9 0 -32 10 -51 21 l-34 21 20
22 c12 12 21 32 21 44 0 25 18 28 44 9z m-2024 -7 c0 -5 -5 -10 -11 -10 -5 0
-7 5 -4 10 3 6 8 10 11 10 2 0 4 -4 4 -10z m-1880 -30 c0 -10 5 -20 12 -22 11
-4 20 -88 9 -88 -16 0 -41 38 -41 64 0 17 -4 38 -9 46 -6 8 -8 17 -5 22 8 13
34 -4 34 -22z m1850 -24 c0 -8 -5 -18 -11 -22 -14 -8 -33 11 -25 25 10 16 36
13 36 -3z m1264 -12 c20 -20 21 -54 1 -54 -18 0 -38 37 -31 56 7 18 11 18 30
-2z m674 -1 c2 -9 -7 -13 -28 -13 -28 0 -31 2 -20 15 15 18 41 16 48 -2z m756
1 c9 -23 7 -64 -2 -64 -17 0 -32 25 -32 52 0 31 24 39 34 12z m-120 -50 c20
-52 -14 -85 -62 -60 -16 8 -34 22 -41 30 -11 13 -10 17 5 22 11 3 28 9 39 14
31 13 52 11 59 -6z m-2699 -8 c37 -13 40 -17 37 -48 -4 -41 -15 -53 -37 -41
-26 15 -63 107 -41 103 1 0 19 -7 41 -14z m2930 -48 c14 -6 25 -18 25 -26 0
-30 -41 -79 -80 -97 -47 -21 -62 -56 -35 -85 12 -13 25 -17 49 -13 37 6 61
-15 51 -46 -3 -10 -19 -37 -35 -60 -25 -34 -36 -41 -64 -41 -20 0 -40 8 -50
19 -9 10 -31 21 -48 25 -33 6 -34 17 -8 81 10 25 10 37 -4 68 -9 22 -25 41
-36 44 -33 9 -23 29 23 47 23 9 48 16 54 16 6 0 16 7 23 15 9 11 16 13 24 5
19 -19 45 -11 52 18 12 47 16 50 59 30z m-366 -28 c7 -23 7 -30 -3 -30 -18 0
-36 21 -36 42 0 29 27 21 39 -12z m571 -40 c25 -50 25 -56 -4 -72 -13 -7 -37
-21 -55 -31 -26 -14 -34 -15 -51 -5 -46 29 -33 95 25 129 46 27 62 23 85 -21z
m-840 17 c0 -8 -10 -19 -23 -24 -14 -7 -31 -30 -41 -57 -17 -44 -17 -48 -1
-72 16 -25 16 -26 -6 -22 -18 2 -28 17 -46 63 -36 93 -30 125 22 105 20 -7 33
-6 53 5 34 18 42 18 42 2z m1294 -40 c15 -18 17 -32 11 -82 -7 -68 -17 -84
-39 -66 -11 10 -13 18 -6 31 15 28 12 48 -9 69 -27 27 -43 60 -35 72 9 16 56
1 78 -24z m-274 -87 c43 -22 49 -39 24 -64 -27 -28 -61 -30 -99 -6 -31 19 -38
20 -69 9 -28 -10 -38 -10 -50 0 -23 19 -20 37 10 60 36 29 129 29 184 1z m464
-11 c22 -17 25 -26 20 -57 -3 -20 -1 -50 5 -65 14 -36 3 -57 -43 -81 -29 -15
-38 -17 -51 -6 -22 18 -19 50 8 78 19 20 22 33 20 88 -1 35 2 64 6 64 5 0 20
-9 35 -21z m-1483 -64 c1 -17 -18 -17 -25 0 -4 11 -1 15 10 13 8 -2 15 -7 15
-13z m-503 -11 c24 -17 31 -64 8 -64 -16 0 -46 42 -46 65 0 19 10 19 38 -1z
m-2418 -29 c0 -8 -4 -15 -10 -15 -5 0 -10 7 -10 15 0 8 5 15 10 15 6 0 10 -7
10 -15z m4024 -66 c-9 -16 -24 -10 -33 14 -13 33 0 44 21 18 10 -13 15 -27 12
-32z m-318 -35 c-8 -21 -36 -17 -36 5 0 11 8 27 18 37 16 17 17 17 20 -5 2
-12 1 -29 -2 -37z m133 42 c12 -14 5 -46 -10 -46 -4 0 -24 -13 -42 -30 -66
-58 -88 -30 -37 46 32 46 66 58 89 30z m-844 -37 c10 -30 -10 -47 -35 -31 -11
6 -31 12 -44 12 -14 0 -28 5 -31 10 -12 20 7 30 55 30 41 0 50 -3 55 -21z
m1235 -9 c0 -15 -38 -32 -45 -20 -3 5 -3 15 0 20 8 13 45 13 45 0z m-2110 -70
c0 -21 -24 -28 -35 -10 -8 14 3 30 21 30 8 0 14 -9 14 -20z m-44 -53 c15 -42
9 -69 -14 -65 -17 3 -45 75 -37 96 9 25 38 8 51 -31z m436 -47 c-5 -81 -14
-92 -49 -58 -16 14 -36 28 -45 31 -13 5 -18 17 -18 46 0 45 8 51 70 48 l45 -2
-3 -65z m96 23 c-3 -39 -14 -48 -37 -34 -12 8 -12 14 -1 40 18 45 42 41 38 -6z
m-369 -37 c14 -14 30 -26 37 -26 7 0 26 -11 41 -24 22 -20 26 -27 16 -37 -10
-10 -19 -9 -43 9 -39 29 -43 28 -74 -13 -23 -30 -33 -35 -67 -35 -36 0 -39 2
-39 28 0 34 8 44 44 60 23 10 27 17 22 38 -13 52 15 52 63 0z m2352 5 c-5 -9
-20 -27 -34 -39 -23 -22 -28 -23 -54 -10 -39 18 -38 50 2 58 17 4 39 12 50 18
26 14 48 -3 36 -27z m-5575 15 c7 -19 -27 -83 -69 -129 -31 -34 -39 -38 -68
-32 -43 7 -49 2 -82 -66 -32 -66 -33 -76 -9 -83 10 -4 26 -21 35 -40 11 -24
25 -36 45 -41 17 -3 38 -15 48 -26 16 -18 16 -21 1 -36 -15 -15 -20 -14 -74
14 -46 24 -59 36 -61 57 -4 32 -9 32 -42 1 l-27 -26 -61 31 c-33 16 -66 30
-71 30 -17 0 -13 23 13 81 18 40 35 61 67 82 24 15 51 27 60 27 10 0 33 14 51
30 38 35 123 80 150 80 10 0 21 8 25 18 15 41 57 59 69 28z m-241 -26 c3 -5 1
-10 -4 -10 -6 0 -11 5 -11 10 0 6 2 10 4 10 3 0 8 -4 11 -10z m-295 -19 c7
-15 5 -25 -8 -41 -16 -20 -23 -21 -48 -13 -21 7 -29 16 -29 34 0 23 10 28 67
38 4 0 12 -8 18 -18z m-205 -1 c3 -5 -1 -10 -10 -10 -9 0 -13 5 -10 10 3 6 8
10 10 10 2 0 7 -4 10 -10z m5653 -18 c4 -29 -24 -62 -53 -62 -33 0 -44 -20
-51 -91 -8 -75 -16 -95 -44 -104 -23 -7 -50 10 -50 31 0 7 14 27 30 44 23 24
30 40 30 71 0 30 6 45 25 62 14 12 38 34 53 50 31 32 56 32 60 -1z m-5450 -96
c4 -18 -14 -46 -29 -46 -11 0 -12 54 -2 64 11 10 28 1 31 -18z m502 -21 c7 -8
8 -15 2 -15 -5 0 -15 7 -22 15 -7 8 -8 15 -2 15 5 0 15 -7 22 -15z m545 -20
c0 -19 -68 -74 -92 -75 -31 0 0 73 37 88 35 14 55 10 55 -13z m125 -75 c0 -13
-7 -20 -18 -20 -26 0 -34 11 -21 27 17 20 39 16 39 -7z m-484 -21 c26 -8 36
-19 54 -64 20 -49 21 -59 10 -107 -17 -73 -22 -80 -63 -101 -30 -14 -39 -25
-48 -62 -9 -34 -17 -47 -34 -51 -43 -11 -60 -1 -57 31 5 60 3 68 -24 96 -25
26 -26 31 -15 53 9 16 10 29 3 42 -11 21 -4 93 12 113 20 26 101 71 116 65 8
-3 29 -10 46 -15z m-942 -35 c3 -9 -1 -14 -13 -14 -18 0 -35 23 -24 33 8 9 31
-3 37 -19z m6235 -32 c21 -20 40 -46 42 -57 3 -15 14 -21 42 -23 37 -3 37 -4
37 -48 0 -53 -2 -60 -15 -54 -5 2 -37 4 -70 5 -55 0 -61 2 -73 28 -8 16 -29
35 -48 43 -28 12 -34 20 -34 44 0 40 18 76 44 88 31 16 33 15 75 -26z m-4833
7 c40 -25 43 -36 10 -49 -14 -5 -30 -19 -37 -32 -7 -13 -24 -34 -38 -48 -14
-14 -34 -40 -43 -58 -9 -18 -21 -32 -27 -32 -20 0 -41 32 -35 55 3 12 -1 36
-10 53 -15 29 -15 32 5 46 16 11 27 12 45 4 27 -13 54 -4 54 17 0 16 28 65 37
65 3 0 21 -9 39 -21z m-1791 2 c10 -17 -11 -21 -31 -6 -18 14 -18 14 3 15 12
0 24 -4 28 -9z m5864 -29 c15 -28 -5 -55 -36 -47 -19 4 -32 0 -48 -15 -13 -12
-31 -20 -41 -18 -58 11 12 98 78 98 25 0 40 -6 47 -18z m-3409 -33 c0 -21 -44
-54 -60 -44 -15 9 -12 23 12 55 16 23 25 27 35 19 7 -6 13 -20 13 -30z m3222
-57 c21 -41 38 -82 38 -92 0 -29 -28 -50 -66 -50 -37 0 -56 22 -35 43 6 6 11
16 11 23 0 10 -30 82 -48 115 -6 12 30 40 47 37 9 -2 33 -36 53 -76z m-3144
-11 c4 -26 -33 -71 -58 -71 -19 0 -40 19 -40 36 0 7 8 10 20 7 25 -7 50 13 50
39 0 27 24 17 28 -11z m3782 4 c0 -10 -11 -16 -30 -16 -16 -1 -35 -2 -42 -3
-6 -1 -13 5 -16 12 -3 9 3 11 21 7 14 -4 28 -2 31 4 10 16 36 13 36 -4z
m-1030 -32 c0 -42 -80 -85 -93 -50 -7 19 3 31 38 50 39 21 55 21 55 0z m-2910
-63 c0 -5 -4 -10 -10 -10 -5 0 -10 5 -10 10 0 6 5 10 10 10 6 0 10 -4 10 -10z
m-570 -24 c0 -15 -24 -28 -34 -19 -7 7 13 33 25 33 5 0 9 -6 9 -14z m3598 -8
c18 -18 15 -41 -4 -34 -37 14 -55 -3 -54 -52 0 -26 0 -58 -1 -72 -2 -14 1 -37
5 -52 7 -25 6 -28 -17 -28 -13 0 -36 9 -50 20 -18 15 -34 19 -52 14 -29 -7
-65 18 -65 46 0 22 20 30 71 30 36 0 39 2 39 28 0 35 7 44 55 81 45 33 56 36
73 19z m1787 -59 c-4 -12 -7 -36 -7 -54 0 -49 -11 -61 -43 -47 -28 13 -42 9
-63 -20 -15 -21 -45 -24 -61 -5 -13 16 -5 27 21 27 18 0 63 35 117 92 31 33
45 35 36 7z m-5750 -19 c0 -8 -8 -16 -17 -18 -13 -2 -18 3 -18 18 0 15 5 20
18 18 9 -2 17 -10 17 -18z m4010 -6 c0 -10 -8 -20 -17 -22 -18 -3 -26 27 -11
42 12 11 28 0 28 -20z m659 10 c8 -20 -21 -67 -37 -61 -7 2 -13 14 -15 26 -6
40 39 70 52 35z m455 -7 c28 -14 39 -37 18 -37 -8 0 -17 -7 -21 -15 -10 -26
-30 -16 -54 25 l-23 40 28 0 c15 0 39 -6 52 -13z m-6461 -115 c43 -54 32 -67
-60 -68 -52 0 -87 -7 -121 -22 -61 -27 -67 -27 -67 1 0 29 74 92 120 102 19 4
42 11 50 16 29 16 48 9 78 -29z m3978 27 c8 -13 -13 -29 -38 -29 -11 0 -18 8
-18 20 0 15 7 20 24 20 14 0 28 -5 32 -11z m3085 -82 c-13 -13 -26 -3 -16 12
3 6 11 8 17 5 6 -4 6 -10 -1 -17z m-7443 -34 c2 -8 -6 -13 -22 -13 -26 0 -40
12 -29 24 11 11 46 2 51 -11z m1875 -18 c-3 -17 -29 -29 -48 -21 -14 5 -15 9
-5 22 14 16 56 16 53 -1z m987 -1 c0 -9 -7 -14 -17 -12 -25 5 -28 28 -4 28 12
0 21 -6 21 -16z m-3580 -4 c0 -5 -5 -10 -11 -10 -5 0 -7 5 -4 10 3 6 8 10 11
10 2 0 4 -4 4 -10z m1101 -13 c-1 -12 -15 -9 -19 4 -3 6 1 10 8 8 6 -3 11 -8
11 -12z m1272 -33 c-3 -8 -9 -14 -14 -14 -14 0 -22 27 -14 48 6 16 7 16 20 -1
8 -11 11 -25 8 -33z m-2353 -64 c0 -5 -4 -10 -10 -10 -5 0 -10 5 -10 10 0 6 5
10 10 10 6 0 10 -4 10 -10z m6707 -17 c3 -7 -5 -17 -16 -23 -18 -9 -21 -8 -21
8 0 32 28 43 37 15z m-6186 -28 c21 -34 21 -34 78 -29 54 6 57 5 69 -20 12
-27 2 -66 -17 -66 -5 0 -14 -15 -21 -32 -7 -18 -22 -43 -33 -55 -18 -20 -19
-26 -7 -47 9 -18 11 -53 8 -122 -5 -88 -3 -100 18 -138 30 -51 31 -101 5 -116
-26 -13 -110 -13 -150 1 -17 6 -31 12 -31 13 0 1 9 19 20 41 24 47 25 61 5
108 -20 49 -19 55 13 59 22 2 27 8 30 33 1 17 -2 37 -7 45 -9 13 -14 13 -40
-3 -16 -9 -36 -17 -44 -17 -22 0 -57 62 -57 100 0 32 0 33 -40 26 -55 -9 -66
16 -21 51 l31 25 -25 30 c-38 45 -34 61 14 53 29 -5 40 -3 44 9 3 8 24 24 45
35 22 11 42 27 45 36 11 27 46 17 68 -20z m3237 -61 c4 -31 -15 -40 -111 -52
-99 -13 -107 -16 -107 -41 0 -11 -9 -29 -19 -42 -19 -23 -19 -24 -40 -5 -26
23 -27 53 -3 60 9 3 25 19 34 36 16 28 21 30 75 31 34 0 74 8 98 19 49 23 69
21 73 -6z m622 -59 c38 -39 50 -45 85 -45 48 0 81 -20 72 -43 -5 -14 -11 -15
-32 -7 -40 15 -48 12 -42 -17 6 -33 -10 -80 -30 -87 -23 -9 -83 13 -83 30 0 8
-16 31 -35 53 -19 21 -35 45 -35 54 0 22 38 107 48 107 4 0 28 -20 52 -45z
m-4251 -28 c14 -26 35 -50 46 -53 49 -15 69 -60 42 -94 -31 -40 -139 -81 -202
-77 -25 2 -31 -2 -33 -23 -5 -36 -41 -70 -73 -70 -15 0 -31 -5 -35 -11 -12
-21 -20 6 -16 58 4 47 6 52 30 55 26 3 27 6 30 63 4 92 8 103 45 113 21 5 37
18 47 37 27 53 31 56 63 53 26 -2 36 -11 56 -51z m4455 7 c20 -8 21 -44 2 -44
-18 0 -39 27 -31 40 7 12 8 12 29 4z m340 -16 c35 -50 15 -94 -74 -155 -25
-17 -62 -57 -84 -92 -47 -72 -64 -76 -120 -26 -34 31 -38 38 -29 58 20 43 62
84 112 107 27 14 55 34 62 46 6 13 22 25 36 29 13 3 28 17 33 30 12 31 44 33
64 3z m-2869 -54 c-24 -18 -34 -18 -42 2 -8 22 16 35 41 22 19 -10 19 -11 1
-24z m-2489 -14 c44 -31 55 -52 33 -66 -7 -4 -22 7 -36 25 -13 17 -33 31 -43
31 -21 0 -34 15 -25 30 10 16 23 12 71 -20z m3677 -23 c45 -42 45 -43 48 -117
4 -143 -47 -250 -120 -250 -23 0 -31 7 -46 39 -23 51 -15 75 22 67 23 -5 35 1
67 34 42 43 42 40 2 135 -17 42 -31 61 -45 63 -12 2 -21 9 -21 16 0 11 36 56
44 56 2 0 24 -19 49 -43z m717 -51 c0 -32 -22 -48 -62 -44 -63 6 -27 67 40 68
17 0 22 -6 22 -24z m2715 -107 c11 -19 13 -35 7 -42 -5 -7 -12 -24 -16 -38 -3
-15 -15 -29 -26 -32 -23 -6 -23 -6 -11 27 6 15 6 37 1 56 -17 61 17 84 45 29z
m-5782 -43 c15 -24 27 -57 27 -74 0 -23 8 -36 30 -52 59 -42 18 -88 -54 -62
-26 10 -41 8 -81 -7 -28 -10 -55 -16 -61 -14 -6 2 -23 -10 -37 -27 -14 -16
-29 -30 -33 -30 -14 0 5 83 25 104 25 26 26 39 6 56 -22 18 -19 50 5 50 13 0
26 13 37 37 16 33 53 55 103 62 3 0 17 -19 33 -43z m1765 12 c-4 -27 -28 -36
-28 -10 0 20 8 32 22 32 5 0 8 -10 6 -22z m-2900 -74 c2 -19 -3 -36 -12 -44
-23 -18 -20 -40 12 -73 l27 -30 -70 7 c-104 10 -126 55 -38 78 44 11 45 11 38
45 -7 39 0 55 23 51 11 -2 18 -15 20 -34z m4022 -9 c0 -8 -9 -15 -20 -15 -20
0 -26 11 -13 23 12 13 33 7 33 -8z m-4232 -19 c3 -13 -1 -17 -14 -14 -11 2
-20 11 -22 22 -3 13 1 17 14 14 11 -2 20 -11 22 -22z m742 -51 c6 -8 9 -19 5
-24 -3 -6 2 -22 11 -36 22 -33 7 -51 -24 -29 -25 17 -65 88 -55 98 12 11 50 6
63 -9z m2630 -41 c0 -20 -33 -34 -53 -23 -20 11 -22 32 -6 61 11 20 11 20 35
-3 13 -12 24 -28 24 -35z m-2540 -5 c0 -10 -7 -19 -15 -19 -15 0 -21 31 -9 43
11 10 24 -3 24 -24z m3047 -33 c23 -20 26 -28 17 -43 -17 -27 -59 -39 -79 -23
-17 14 -14 53 7 77 15 18 23 16 55 -11z m4770 -43 c6 -32 14 -66 18 -76 5 -12
-3 -27 -31 -52 -44 -41 -56 -43 -84 -13 -23 25 -27 58 -5 58 8 0 21 17 30 38
9 20 23 52 31 70 7 17 17 32 22 32 4 0 12 -26 19 -57z m-8437 16 c41 -12 81
-23 88 -25 24 -7 12 -23 -26 -35 -32 -9 -44 -8 -71 5 -21 11 -43 15 -65 10
-28 -5 -36 -2 -45 14 -31 57 -2 65 119 31z m408 -12 c12 -25 12 -31 -4 -48 -9
-10 -30 -19 -45 -19 -22 0 -32 -7 -44 -30 -17 -33 -54 -41 -74 -16 -10 12 -8
19 8 35 12 12 21 32 21 45 0 27 8 35 55 52 45 18 68 12 83 -19z m445 -26 c-3
-14 -8 -29 -10 -33 -6 -12 -43 -10 -43 2 0 6 5 10 10 10 6 0 10 15 10 33 0 19
3 37 7 41 13 13 33 -26 26 -53z m1969 44 c0 -5 -5 -11 -11 -13 -6 -2 -11 4
-11 13 0 9 5 15 11 13 6 -2 11 -8 11 -13z m4334 -10 c15 -23 15 -27 0 -50 -24
-37 -20 -45 24 -45 36 0 40 -2 40 -25 0 -27 -9 -32 -28 -13 -7 7 -26 17 -44
22 -30 11 -66 55 -67 85 -1 18 28 51 45 51 8 0 21 -11 30 -25z m-4516 -10 c19
-14 40 -25 47 -25 7 0 13 -9 13 -20 0 -25 -16 -25 -73 -1 -43 18 -63 43 -51
62 9 15 28 10 64 -16z m1734 -30 c26 -28 50 -45 65 -45 32 0 21 -24 -13 -28
-16 -2 -36 4 -47 14 -11 9 -29 22 -41 28 -28 14 -43 39 -35 60 10 26 27 19 71
-29z m2606 35 c0 -5 -4 -10 -10 -10 -5 0 -10 5 -10 10 0 6 5 10 10 10 6 0 10
-4 10 -10z m1326 -31 c-3 -17 -6 -38 -6 -46 0 -23 -17 -6 -23 24 -6 34 1 53
20 53 12 0 14 -7 9 -31z m-126 -34 c0 -8 -4 -15 -10 -15 -5 0 -10 7 -10 15 0
8 5 15 10 15 6 0 10 -7 10 -15z m-4207 -44 c4 -19 18 -36 41 -50 36 -23 83
-87 72 -98 -4 -4 -24 -6 -46 -5 -51 3 -80 -12 -80 -42 0 -28 -26 -42 -46 -25
-21 17 -17 109 7 176 11 32 22 64 25 71 6 20 21 6 27 -27z m4745 -5 c0 -35 -5
-49 -26 -69 -15 -14 -36 -27 -47 -29 -29 -5 -23 42 12 98 37 59 61 59 61 0z
m-5232 9 c20 -20 23 -28 14 -45 -8 -15 -21 -20 -51 -20 -39 0 -41 2 -35 24 3
14 2 28 -4 31 -5 3 -10 13 -10 21 0 24 58 17 86 -11z m4102 -3 c2 -14 -2 -22
-11 -22 -17 0 -30 27 -21 41 9 16 29 4 32 -19z m-6628 -7 c10 -12 9 -16 -5
-21 -19 -8 -40 9 -31 25 10 15 21 14 36 -4z m1765 -10 c0 -10 -6 -20 -12 -22
-8 -3 -13 5 -13 22 0 17 5 25 13 23 6 -3 12 -13 12 -23z m-3181 -7 c7 -12 6
-21 -3 -32 -18 -22 -31 -11 -31 25 0 32 16 35 34 7z m1302 -35 c-10 -10 -19 5
-10 18 6 11 8 11 12 0 2 -7 1 -15 -2 -18z m-1133 -64 c-17 -17 -37 -1 -22 17
8 10 15 12 23 4 7 -7 7 -13 -1 -21z m2190 24 c11 -11 -25 -43 -48 -43 -12 0
-30 -9 -40 -20 -11 -12 -22 -17 -28 -11 -13 13 59 81 87 81 12 0 26 -3 29 -7z
m77 -44 c0 -6 -7 -8 -16 -5 -9 3 -18 6 -20 6 -2 0 -4 7 -4 15 0 13 4 14 20 5
11 -6 20 -16 20 -21z m6516 -29 c12 0 32 -9 45 -19 19 -16 22 -22 12 -32 -22
-22 -15 -43 28 -80 l41 -35 -16 -32 c-9 -18 -21 -32 -26 -32 -4 0 -20 14 -33
32 -14 17 -40 36 -59 42 -30 11 -33 14 -30 48 2 30 -2 40 -23 54 -42 28 -28
69 20 59 11 -3 30 -5 41 -5z m-3198 -51 c-2 -15 -11 -25 -24 -27 -31 -4 -38
24 -13 49 25 25 42 14 37 -22z m-2563 -9 c3 -5 1 -10 -4 -10 -6 0 -11 5 -11
10 0 6 2 10 4 10 3 0 8 -4 11 -10z m3218 -28 c27 -23 17 -82 -14 -82 -9 0 -89
99 -89 110 0 12 83 -11 103 -28z m-5536 1 c7 -19 -45 -63 -75 -63 -30 0 -67
30 -46 37 6 2 26 14 44 28 32 23 69 23 77 -2z m8650 -9 c3 -8 0 -21 -6 -27
-10 -9 -16 -8 -26 7 -8 10 -12 23 -9 27 9 15 34 10 41 -7z m-8587 -44 c0 -5
-4 -10 -10 -10 -5 0 -10 5 -10 10 0 6 5 10 10 10 6 0 10 -4 10 -10z m-486 -72
c7 -12 7 -27 -3 -54 -11 -32 -11 -38 3 -52 14 -14 19 -15 38 -3 19 12 24 11
40 -9 21 -26 24 -63 5 -78 -7 -6 -35 -12 -62 -14 -42 -3 -50 -6 -50 -23 0 -13
12 -25 32 -35 25 -11 33 -22 33 -41 0 -24 -4 -27 -51 -33 -61 -8 -79 3 -79 49
0 18 -7 38 -15 45 -22 18 -19 27 25 82 22 28 40 56 40 62 0 6 -8 33 -17 59
-15 42 -15 49 -3 58 21 13 51 7 64 -13z m1777 -48 c6 -16 17 -30 25 -30 8 0
22 -8 32 -17 72 -69 69 -67 112 -53 32 10 42 11 55 0 8 -7 15 -17 15 -22 0
-13 -116 -8 -174 8 -27 8 -56 14 -63 14 -25 0 -13 -29 22 -50 38 -23 46 -55
18 -64 -10 -3 -35 -8 -55 -11 -34 -7 -38 -4 -67 36 -26 36 -31 51 -31 102 0
56 3 63 33 88 42 37 65 37 78 -1z m7005 15 c4 -8 3 -23 0 -32 -6 -15 -8 -15
-23 -1 -16 17 -12 48 7 48 6 0 13 -7 16 -15z m-2491 -61 c0 -10 -8 -20 -17
-22 -18 -3 -26 27 -11 42 12 11 28 0 28 -20z m-80 -64 c7 -21 -10 -60 -25 -60
-18 0 -31 39 -20 60 14 26 37 26 45 0z m-4770 -90 c0 -18 -33 -26 -47 -12 -6
6 -7 15 -3 22 10 16 50 8 50 -10z m1269 -15 c20 -31 22 -105 2 -105 -19 0 -35
22 -46 61 -18 63 12 93 44 44z m-134 1 c6 -8 10 -25 8 -38 -2 -19 -9 -23 -32
-21 -36 3 -71 35 -63 57 8 20 70 21 87 2z m3150 -16 c0 -11 -7 -20 -15 -20
-15 0 -21 21 -8 33 12 13 23 7 23 -13z m-3790 -14 c0 -8 -18 -29 -40 -46 -48
-38 -51 -53 -10 -48 16 1 30 -2 30 -7 1 -24 -31 -85 -45 -85 -8 0 -30 -7 -48
-16 -32 -15 -39 -15 -91 1 -65 21 -83 37 -61 55 27 22 18 48 -17 52 -38 3 -48
30 -25 62 16 21 42 23 147 12 56 -6 69 -5 95 13 35 24 65 27 65 7z m3078 -14
c2 -7 -6 -12 -17 -12 -21 0 -27 11 -14 24 9 9 26 2 31 -12z m-2858 -12 c12
-23 4 -64 -16 -81 -26 -21 -144 21 -144 52 0 5 10 17 22 29 31 28 123 29 138
0z m5085 -50 c0 -8 -10 -16 -22 -18 -22 -3 -32 16 -16 32 12 11 38 2 38 -14z
m327 -82 c24 -26 38 -50 36 -63 -3 -18 -11 -20 -88 -21 -47 -1 -97 -5 -112 -9
-23 -6 -29 -3 -42 23 -19 37 -21 81 -3 87 13 5 118 22 151 24 11 0 36 -18 58
-41z m-6214 4 c4 -27 -49 -82 -79 -82 -31 0 -99 31 -99 46 0 7 12 16 28 19 15
3 47 14 72 25 56 23 74 21 78 -8z m1676 2 c9 -3 16 -13 16 -21 0 -21 -44 -12
-48 10 -4 18 6 21 32 11z m-2991 -20 c7 -8 -13 -54 -25 -54 -4 0 -8 3 -8 8 0
4 -3 17 -6 30 -5 17 -2 22 13 22 11 0 22 -3 26 -6z m9236 -70 c1 -1 -15 -20
-36 -41 -22 -22 -44 -47 -50 -58 -10 -16 -16 -17 -64 -7 -92 18 -109 28 -109
61 0 38 19 52 62 45 20 -4 44 -1 54 4 16 9 131 6 143 -4z m-363 -89 c13 -20
15 -33 7 -58 -8 -28 -13 -32 -42 -30 -21 1 -44 11 -62 29 -50 48 -33 84 38 84
34 0 46 -5 59 -25z m-3978 -11 c4 -25 -48 -67 -75 -62 -48 9 -3 92 47 86 17
-2 26 -10 28 -24z m-1634 -36 c13 -37 5 -42 -38 -24 -39 16 -43 25 -24 44 20
20 52 10 62 -20z m-2610 16 c45 -17 -10 -82 -59 -70 -25 6 -43 45 -30 65 7 12
64 15 89 5z m8060 -20 c16 -42 -2 -57 -38 -31 -11 8 -15 19 -10 30 8 21 40 22
48 1z m-1138 -110 c46 -26 65 -45 68 -71 2 -10 15 -24 29 -31 26 -12 47 -61
47 -107 0 -51 55 -202 93 -253 52 -71 61 -105 37 -134 l-18 -23 -26 24 c-19
18 -32 22 -56 18 -24 -5 -33 -2 -43 14 -6 11 -33 34 -59 50 -26 17 -50 39 -53
50 -4 11 -12 18 -18 16 -13 -4 -14 -42 -2 -69 11 -26 -19 -33 -49 -11 -13 10
-27 28 -31 41 -6 23 -20 29 -30 12 -4 -6 -23 -17 -42 -25 -20 -9 -43 -24 -50
-35 -16 -23 -43 -27 -43 -6 0 7 7 19 15 26 8 7 15 21 15 32 0 11 26 46 57 79
52 55 57 64 61 114 2 30 9 55 14 55 11 0 47 -78 48 -102 0 -10 5 -18 11 -18 7
0 8 14 4 39 -5 32 -3 43 14 60 12 12 27 21 35 21 23 0 38 27 31 58 -4 22 -13
31 -34 35 -24 5 -30 13 -40 51 -13 51 -43 78 -78 70 -25 -7 -40 14 -29 41 8
21 67 11 122 -21z m-8162 -18 c-6 -16 -24 -23 -24 -8 0 10 22 33 27 28 2 -2 1
-11 -3 -20z m1031 -17 c4 -12 2 -26 -4 -32 -16 -16 -45 3 -49 32 -5 30 44 30
53 0z m395 -8 c0 -13 -50 -71 -61 -71 -5 0 3 18 17 40 25 38 44 51 44 31z
m5584 -36 c42 -39 54 -45 92 -45 49 0 50 -1 28 -35 -9 -14 -14 -39 -12 -62 l3
-38 -60 3 c-33 2 -71 8 -85 13 -39 16 -80 88 -80 141 0 82 43 90 114 23z
m-6827 9 c12 -19 12 -24 -2 -38 -22 -22 -32 -20 -51 9 -13 21 -14 28 -4 40 17
20 39 16 57 -11z m-227 -24 c0 -5 -4 -10 -10 -10 -5 0 -10 5 -10 10 0 6 5 10
10 10 6 0 10 -4 10 -10z m9858 -28 c2 -7 -3 -12 -12 -12 -9 0 -16 7 -16 16 0
17 22 14 28 -4z m-3192 -60 c-10 -10 -29 15 -21 28 6 9 10 8 17 -4 6 -10 7
-20 4 -24z m1374 -4 c0 -30 -1 -31 -16 -16 -9 9 -14 24 -11 32 11 27 27 17 27
-16z m-1132 -21 c17 -13 15 -46 -4 -54 -14 -5 -80 23 -91 40 -2 4 -2 14 1 22
6 15 71 10 94 -8z m1050 -5 c2 -13 -2 -30 -9 -38 -10 -13 -10 -17 2 -24 15
-10 58 -3 74 11 17 17 35 9 35 -16 0 -36 -19 -71 -48 -86 -22 -13 -26 -12 -36
6 -6 11 -26 35 -45 53 -30 29 -33 37 -23 53 7 10 12 30 12 45 0 33 33 30 38
-4z m518 -2 c69 -54 75 -60 69 -70 -3 -6 -17 -10 -31 -10 -14 0 -33 -4 -43
-10 -16 -8 -21 -3 -35 33 -17 46 -21 87 -7 87 4 0 26 -14 47 -30z m-8505 -14
c-7 -8 -10 -24 -6 -35 4 -14 0 -23 -14 -30 -11 -6 -23 -20 -26 -31 -8 -26 -17
-25 -64 8 -43 29 -51 55 -28 87 11 14 23 17 60 13 33 -4 50 -1 58 9 8 9 15 11
22 4 7 -7 6 -15 -2 -25z m5011 1 c17 -31 2 -47 -42 -47 -34 0 -42 4 -50 26
-14 35 -9 39 40 39 29 0 45 -6 52 -18z m-4893 -1 c9 -11 7 -20 -12 -42 -35
-41 -63 -13 -37 37 13 22 33 25 49 5z m10118 -43 c4 -9 -2 -30 -12 -47 -10
-17 -27 -48 -37 -68 -10 -21 -23 -38 -28 -38 -17 0 -21 20 -7 42 8 13 18 41
22 63 4 22 11 46 17 53 15 17 37 15 45 -5z m-657 -13 c0 -5 -4 -10 -9 -10 -6
0 -13 5 -16 10 -3 6 1 10 9 10 9 0 16 -4 16 -10z m-2834 -26 c-3 -9 -6 -18 -6
-20 0 -2 -7 -4 -15 -4 -18 0 -20 26 -2 33 23 10 29 7 23 -9z m1768 -30 c16 -6
24 -74 8 -74 -17 0 -32 25 -32 52 0 30 1 31 24 22z m-8724 -18 c0 -22 -29 -41
-42 -28 -8 8 -8 15 2 27 16 19 40 20 40 1z m6818 -14 c3 -18 -1 -22 -22 -22
-19 0 -26 5 -26 18 0 39 43 43 48 4z m-742 -15 c5 -14 -43 -107 -55 -107 -15
0 -31 25 -31 47 0 45 72 95 86 60z m876 -15 c25 -21 7 -40 -34 -34 -49 7 -62
21 -42 44 19 20 46 17 76 -10z m618 13 c0 -16 -27 -32 -37 -22 -3 4 -3 13 0
22 8 20 37 20 37 0z m-8002 -44 c6 -39 -14 -47 -32 -13 -21 40 -20 44 7 40 14
-2 23 -11 25 -27z m1952 -1 c12 -7 9 -13 -13 -30 -24 -19 -26 -26 -21 -61 7
-42 -1 -48 -32 -24 -48 36 -73 2 -34 -48 11 -14 20 -32 20 -41 0 -47 -92 17
-116 80 -23 61 -15 72 77 105 83 30 98 33 119 19z m3618 -7 c-4 -22 -22 -20
-26 1 -2 10 3 16 13 16 10 0 15 -7 13 -17z m1572 -14 c0 -24 -23 -21 -28 4 -2
10 3 17 12 17 10 0 16 -9 16 -21z m-3790 -15 c0 -16 -18 -18 -40 -4 -13 9 -13
11 -1 19 18 12 41 3 41 -15z m5900 7 c17 -34 12 -61 -11 -61 -26 0 -48 26 -49
58 0 17 6 22 25 22 14 0 29 -8 35 -19z m-2904 -68 c6 -22 1 -32 -27 -55 -18
-15 -39 -28 -45 -28 -16 0 -74 67 -74 85 0 8 14 22 32 31 18 9 39 23 47 32 13
13 17 11 38 -12 13 -15 26 -39 29 -53z m1112 53 c12 -27 7 -36 -20 -36 -12 0
-18 7 -18 23 0 42 21 49 38 13z m240 -6 c54 -32 59 -39 42 -70 -17 -32 -2 -50
43 -50 31 0 48 -6 67 -25 14 -14 38 -36 53 -48 32 -25 29 -47 -9 -68 -24 -12
-28 -11 -52 18 -34 40 -88 52 -126 28 -14 -10 -32 -15 -40 -12 -27 10 -56 130
-49 197 3 33 9 60 12 60 3 0 30 -14 59 -30z m3202 20 c0 -5 -7 -25 -15 -45 -8
-19 -22 -51 -30 -70 -8 -19 -19 -35 -25 -35 -7 0 -8 6 0 19 5 11 10 32 10 48
0 30 34 93 50 93 5 0 10 -4 10 -10z m-4814 -72 c14 -13 30 -33 35 -46 5 -12
20 -27 35 -32 14 -6 40 -21 58 -35 18 -14 45 -25 59 -25 34 0 67 -32 67 -64 0
-34 -17 -42 -42 -20 -19 18 -20 18 -39 -4 -16 -21 -17 -27 -6 -55 14 -34 85
-81 102 -69 6 4 25 26 44 50 24 31 40 42 60 42 15 0 32 5 39 12 15 15 16 48 2
48 -12 0 -13 67 -1 74 12 8 71 -16 71 -28 0 -10 -35 -107 -50 -136 -4 -8 -20
-22 -36 -30 -17 -10 -31 -28 -35 -46 -11 -53 -47 -108 -111 -170 -60 -59 -130
-104 -161 -104 -8 0 -32 -13 -55 -29 -22 -17 -77 -48 -121 -71 -45 -22 -110
-58 -146 -80 -36 -22 -105 -60 -154 -84 -65 -33 -94 -54 -108 -78 -12 -21 -47
-50 -91 -76 -39 -23 -92 -61 -118 -83 -45 -39 -47 -39 -71 -24 -13 9 -32 14
-40 11 -22 -9 -50 2 -58 22 -12 30 -45 265 -45 322 0 76 34 259 59 314 25 57
157 205 190 213 13 3 32 14 42 24 23 23 39 24 65 4 28 -21 39 -19 74 16 l31
32 20 -22 c11 -11 27 -21 35 -21 8 0 30 -11 48 -25 24 -18 45 -25 78 -25 58 0
70 15 67 82 l-3 53 33 3 c21 2 40 -3 52 -14 16 -15 23 -15 65 -3 49 15 63 31
45 53 -13 15 -41 103 -41 129 0 24 25 21 56 -5z m2044 -13 c0 -40 -30 -65 -50
-41 -9 11 -8 22 5 45 22 43 45 41 45 -4z m-122 -2 c2 -12 -2 -31 -8 -43 -9
-17 -14 -19 -26 -9 -14 12 -19 60 -7 73 13 13 38 1 41 -21z m-4884 -3 c14 -5
26 -16 26 -25 0 -17 -46 -39 -67 -31 -23 9 -28 38 -8 52 22 17 18 16 49 4z
m-1481 -28 c86 -31 102 -98 28 -113 -18 -4 -38 -12 -44 -18 -13 -13 -44 -15
-50 -3 -3 4 -8 40 -12 80 -8 83 -6 85 78 54z m-143 -34 c13 -25 13 -29 -2 -44
-16 -16 -18 -16 -42 0 -25 16 -35 54 -19 70 14 14 48 0 63 -26z m3774 26 c20
-8 21 -40 1 -48 -22 -8 -49 23 -34 40 13 16 12 16 33 8z m483 -38 c15 -12 38
-28 51 -35 24 -13 30 -41 8 -41 -18 0 -113 48 -122 61 -9 15 3 39 20 39 8 0
27 -11 43 -24z m-4869 -88 c4 -33 -47 -88 -82 -88 -39 0 -33 27 16 77 46 47
61 50 66 11z m8470 5 c5 -16 -22 -27 -44 -19 -13 5 -14 9 -4 22 15 17 41 15
48 -3z m-7891 -27 c25 -22 26 -26 13 -38 -18 -17 -89 -42 -97 -34 -3 3 2 17
11 30 9 14 16 34 16 46 0 27 23 25 57 -4z m5510 -96 c89 -93 95 -137 18 -124
-73 13 -105 51 -105 127 0 76 11 75 87 -3z m-5629 33 c18 -4 20 -8 10 -14 -22
-14 -58 -10 -58 6 0 16 12 18 48 8z m8890 -45 c17 -17 15 -39 -5 -67 -15 -23
-17 -23 -30 -6 -14 20 -18 67 -6 78 10 11 28 8 41 -5z m-6294 -24 c16 -15 19
-26 31 -94 13 -74 11 -85 -12 -88 -12 -2 -32 4 -45 12 -26 17 -39 12 -57 -22
-10 -19 -18 -22 -41 -17 -26 6 -31 2 -51 -37 -37 -73 -60 -78 -57 -11 1 37 -3
50 -21 65 -13 10 -29 18 -37 18 -16 0 -37 37 -29 50 12 19 41 10 70 -20 40
-42 72 -40 91 6 13 32 18 35 43 29 38 -8 61 23 61 82 0 36 3 43 19 43 11 0 27
-7 35 -16z m226 6 c0 -5 -4 -10 -10 -10 -5 0 -10 5 -10 10 0 6 5 10 10 10 6 0
10 -4 10 -10z m820 -22 c0 -17 -10 -45 -24 -63 -13 -17 -31 -48 -40 -68 -16
-41 -40 -48 -56 -18 -21 41 -11 70 43 125 61 64 77 69 77 24z m4770 15 c9 -9
-41 -42 -55 -36 -8 3 -15 16 -15 30 0 23 3 24 33 18 17 -4 34 -9 37 -12z
m-8470 -13 c12 -7 12 -12 -4 -29 -11 -12 -25 -21 -33 -21 -19 0 -27 28 -13 45
14 17 29 19 50 5z m1384 -7 c8 -19 -8 -38 -23 -29 -16 10 -13 46 3 46 8 0 17
-8 20 -17z m961 -13 c3 -5 2 -10 -4 -10 -5 0 -13 5 -16 10 -3 6 -2 10 4 10 5
0 13 -4 16 -10z m-2978 -50 c4 -20 16 -36 34 -46 44 -22 33 -74 -14 -74 -22 0
-117 68 -117 84 0 17 53 66 72 66 13 0 20 -10 25 -30z m9215 3 c31 -28 21 -71
-12 -53 -21 11 -31 35 -24 55 8 19 13 19 36 -2z m-5752 -34 c11 -26 11 -32 -1
-40 -19 -12 -32 -11 -52 4 -16 11 -16 14 5 44 26 36 31 35 48 -8z m-1477 -9
c34 -31 53 -40 80 -40 41 0 54 -12 32 -30 -15 -12 -40 -11 -135 6 -58 11 -75
38 -50 85 15 26 21 25 73 -21z m1670 34 c9 -10 -15 -54 -30 -54 -14 0 -17 18
-7 44 6 16 25 21 37 10z m-2122 -44 c23 -13 25 -28 4 -36 -19 -8 -75 17 -75
33 0 16 44 17 71 3z m814 -45 c0 -21 -33 -32 -63 -20 -15 6 -14 9 7 26 29 24
56 21 56 -6z m7635 -6 c12 -22 13 -59 1 -59 -14 0 -61 41 -61 54 0 36 42 40
60 5z m-792 -79 c1 -41 10 -90 18 -108 29 -62 -3 -106 -48 -65 -12 11 -18 30
-18 59 0 40 -3 45 -32 58 -43 19 -78 50 -78 69 0 24 35 49 62 42 16 -4 29 -1
38 10 7 9 23 15 34 13 19 -3 21 -11 24 -78z m662 35 c19 -23 0 -80 -25 -80
-15 0 -21 8 -23 33 -6 59 19 82 48 47z m-2870 -5 c0 -5 -2 -10 -4 -10 -3 0 -8
5 -11 10 -3 6 -1 10 4 10 6 0 11 -4 11 -10z m-5316 -15 c3 -8 -4 -23 -15 -34
-17 -15 -19 -26 -14 -51 8 -35 -15 -70 -45 -70 -30 0 -110 104 -93 121 12 12
114 47 139 48 12 1 24 -6 28 -14z m-1664 -15 c0 -17 -7 -20 -45 -20 -53 0 -58
12 -12 27 49 16 57 15 57 -7z m6446 -30 c3 -90 3 -90 24 -90 12 0 32 11 46 25
14 14 26 25 28 25 2 0 7 -21 11 -47 7 -49 49 -103 79 -103 9 0 16 -5 16 -11 0
-11 -42 -9 -134 9 -51 10 -66 23 -66 60 0 24 -10 28 -27 11 -15 -15 -27 -6
-47 35 -13 27 -14 40 -4 67 26 80 72 92 74 19z m2901 18 c19 -16 17 -21 -33
-62 -34 -29 -48 -36 -57 -27 -9 9 -8 16 1 31 6 11 12 30 12 43 0 13 3 27 7 31
9 9 53 -1 70 -16z m-6517 -11 c34 -2 35 -4 38 -43 3 -38 -2 -47 -42 -90 -26
-27 -46 -52 -46 -57 0 -12 31 -70 48 -90 13 -15 13 -21 2 -42 -21 -39 -2 -50
77 -48 64 2 103 20 103 47 0 6 -19 27 -42 47 -30 26 -40 41 -34 54 5 15 13 16
49 11 23 -4 61 -10 84 -13 24 -3 48 -12 54 -19 15 -19 3 -49 -26 -62 -20 -9
-25 -19 -25 -46 0 -27 -7 -40 -32 -60 -30 -23 -31 -26 -19 -50 12 -21 12 -28
0 -42 -10 -13 -26 -15 -73 -12 -52 4 -63 8 -81 33 -48 67 -64 81 -75 65 -5 -8
-10 -25 -10 -37 0 -12 -5 -25 -12 -29 -24 -15 -145 -46 -208 -53 -45 -6 -77
-16 -104 -34 -45 -31 -80 -34 -157 -11 -69 20 -99 39 -99 64 0 31 34 42 105
35 72 -8 102 4 164 68 30 31 36 34 61 25 29 -10 70 3 70 22 0 5 14 25 31 45
30 34 31 36 15 60 -22 34 -20 46 7 40 29 -8 52 17 42 42 -4 10 -9 29 -11 43
-2 14 -13 47 -25 74 -21 48 -21 50 -3 64 14 10 35 12 79 7 33 -3 76 -7 95 -8z
m4430 -22 c0 -27 -9 -32 -28 -13 -18 18 -14 38 8 38 15 0 20 -7 20 -25z
m-1112 -27 c3 -33 -3 -44 -41 -85 -40 -42 -50 -47 -103 -54 -32 -3 -76 -10
-96 -14 -69 -13 -41 33 62 102 25 17 54 41 65 53 25 28 52 40 85 37 21 -2 25
-8 28 -39z m1028 25 c3 -10 10 -26 15 -35 15 -28 11 -34 -40 -71 -27 -20 -55
-48 -63 -64 -17 -35 -42 -37 -46 -3 -6 52 -13 70 -28 70 -23 0 -28 -27 -11
-62 26 -53 10 -68 -74 -68 -61 0 -73 3 -94 25 -33 32 -31 63 4 105 l29 35 22
-20 c19 -18 24 -18 48 -5 15 9 34 30 42 47 18 38 25 40 40 13 6 -11 18 -20 28
-20 26 0 82 38 82 55 0 21 39 19 46 -2z m-3367 -32 c12 -8 12 -21 0 -98 -10
-65 -13 -170 -12 -398 1 -170 4 -500 5 -732 3 -399 2 -423 -15 -440 -18 -17
-20 -16 -55 27 -21 24 -64 69 -96 100 -176 163 -179 167 -204 265 -28 112 -64
191 -141 305 -33 49 -62 98 -66 109 -3 12 -18 23 -33 27 -15 3 -49 16 -77 29
-27 12 -72 28 -100 35 -75 20 -76 21 -73 124 l3 91 48 24 48 24 32 -35 c33
-35 92 -66 104 -54 4 3 -3 19 -15 34 -33 40 -63 108 -56 126 3 9 15 16 25 16
30 0 80 52 88 90 4 21 15 39 29 46 13 6 33 20 45 31 37 32 70 50 107 56 150
24 140 18 181 99 24 47 37 61 72 77 24 11 53 18 65 15 11 -3 29 -1 39 5 22 13
34 13 52 2z m5819 -59 c3 -9 -2 -13 -14 -10 -9 1 -19 9 -22 16 -3 9 2 13 14
10 9 -1 19 -9 22 -16z m-7846 -30 c-2 -18 5 -45 14 -62 18 -29 18 -30 -4 -51
-19 -17 -21 -23 -11 -36 7 -8 23 -13 36 -10 15 3 24 -1 28 -14 9 -26 41 -33
76 -15 33 17 49 14 49 -9 0 -23 22 -29 36 -10 14 19 44 14 44 -7 -1 -7 -9 -29
-18 -48 -26 -54 -57 -52 -195 14 -71 34 -121 64 -128 78 -11 21 2 79 42 186
13 34 35 22 31 -16z m8228 -2 c24 -24 24 -30 7 -54 -9 -12 -23 -17 -42 -14
-25 2 -31 8 -33 33 -3 19 2 33 14 42 24 17 30 17 54 -7z m-7663 -25 c-4 -8
-11 -15 -17 -15 -14 0 -13 27 3 33 16 6 21 1 14 -18z m4423 -57 c0 -14 -21
-19 -56 -12 -47 9 -51 24 -17 61 l28 31 22 -36 c13 -21 23 -40 23 -44z m2593
76 c11 -11 -13 -44 -32 -44 -27 0 -33 12 -14 32 16 18 35 23 46 12z m-4989
-39 c-1 -37 -26 -150 -59 -275 -24 -87 -25 -100 -14 -173 15 -102 8 -156 -31
-240 -34 -72 -56 -93 -109 -103 l-34 -7 8 34 c4 19 10 126 14 239 l7 205 36
80 c20 44 48 111 63 150 29 78 69 127 100 123 15 -2 20 -10 19 -33z m5756 -20
c10 -12 10 -18 0 -30 -17 -21 -37 -19 -45 5 -12 37 20 55 45 25z m-7738 -82
c15 -15 28 -32 28 -38 0 -35 -80 -63 -135 -47 -23 6 -30 14 -30 33 0 18 11 30
50 51 28 15 52 28 54 28 3 0 18 -12 33 -27z m-2297 -8 c0 -11 -7 -21 -15 -22
-24 -4 -41 12 -34 31 9 24 49 17 49 -9z m9133 -14 c3 -16 -1 -22 -10 -19 -7 3
-15 15 -16 27 -3 16 1 22 10 19 7 -3 15 -15 16 -27z m163 -14 c-8 -8 -11 -7
-11 4 0 20 13 34 18 19 3 -7 -1 -17 -7 -23z m-9422 -11 c24 -28 6 -44 -48 -44
-58 0 -63 10 -25 50 28 28 46 27 73 -6z m10056 8 c34 -22 33 -46 -2 -42 -22 2
-29 9 -31 31 -4 31 0 33 33 11z m-9909 -89 c4 -18 1 -32 -11 -45 -18 -19 -17
-22 8 -81 24 -57 25 -64 12 -95 -13 -32 -17 -34 -59 -34 -36 0 -52 -6 -79 -30
-19 -16 -39 -30 -45 -30 -29 0 -19 25 27 70 46 45 51 54 51 93 0 33 -6 49 -25
67 -30 28 -32 50 -6 50 11 0 26 8 33 18 32 45 84 55 94 17z m9210 -1 c55 -27
89 -65 80 -90 -9 -23 -36 -16 -46 11 -11 30 -15 31 -47 5 -32 -25 -44 -25 -77
1 -32 25 -34 62 -4 83 29 21 32 20 94 -10z m-1069 -5 c5 -5 25 -18 44 -27 46
-23 51 -52 10 -52 -21 0 -41 10 -66 35 -19 20 -35 40 -35 45 0 13 33 13 47 -1z
m-6747 -39 c93 -36 110 -46 110 -66 0 -33 -131 -60 -179 -37 -31 16 -61 73
-61 119 0 31 6 31 130 -16z m7280 11 c10 -19 5 -50 -9 -52 -80 -6 -101 -4
-101 11 0 8 7 26 16 38 20 29 79 31 94 3z m106 4 c7 -16 -43 -75 -64 -75 -27
0 -23 30 10 59 38 35 46 37 54 16z m-3306 -24 c0 -14 -128 -95 -180 -114 -25
-10 -82 -46 -127 -82 -58 -47 -94 -67 -129 -75 -26 -6 -113 -44 -192 -85 -147
-77 -202 -92 -202 -57 0 22 32 53 77 76 18 9 49 28 70 42 21 14 79 45 128 69
50 24 101 55 114 69 13 14 40 28 60 32 54 8 88 23 129 57 62 50 130 77 195 77
31 0 57 -4 57 -9z m3440 -26 c0 -8 -4 -15 -10 -15 -11 0 -40 -53 -40 -75 0 -8
6 -15 14 -15 8 0 24 -8 35 -17 21 -17 21 -20 6 -49 -19 -38 -4 -91 29 -104 17
-7 15 -9 -16 -9 -31 -1 -39 4 -56 33 -14 24 -30 36 -54 41 -52 11 -68 31 -68
86 0 40 4 51 24 65 14 8 26 25 28 37 2 18 12 23 48 28 25 3 48 7 53 7 4 1 7
-5 7 -13z m-8007 -10 c4 -8 2 -17 -4 -20 -16 -11 -69 6 -69 21 0 19 66 19 73
-1z m281 -36 c-3 -5 -10 -7 -15 -3 -5 3 -7 10 -3 15 3 5 10 7 15 3 5 -3 7 -10
3 -15z m1497 6 c0 -5 -9 -11 -21 -13 -20 -3 -27 8 -13 22 10 9 34 3 34 -9z
m5182 -21 l32 -17 -44 -13 c-47 -14 -61 -11 -61 10 0 14 20 36 32 36 5 0 23
-7 41 -16z m-88 -58 c16 -24 14 -52 -7 -108 -11 -31 -19 -33 -49 -18 -24 13
-25 36 -2 49 15 8 16 15 7 50 -6 22 -9 43 -6 46 13 13 43 3 57 -19z m-6055
-19 c29 -14 44 -28 41 -37 -23 -92 -23 -101 -1 -122 27 -25 15 -41 -47 -62
-68 -23 -144 -21 -177 5 -15 12 -44 22 -64 24 -51 3 -89 20 -102 45 -6 12 -22
25 -36 30 -33 13 -30 36 6 55 47 24 77 19 95 -15 22 -43 41 -37 70 20 40 79
124 102 215 57z m8190 -2 c7 -9 11 -17 9 -19 -7 -7 -49 13 -49 24 0 15 26 12
40 -5z m-2639 -55 c10 -6 19 -15 19 -20 0 -14 -34 -12 -48 2 -26 26 -7 37 29
18z m639 -70 c9 -17 7 -22 -15 -30 -33 -13 -42 -13 -50 1 -8 12 23 49 41 49 7
0 18 -9 24 -20z m-7480 -10 c5 0 11 -8 15 -18 6 -21 45 -42 75 -42 11 0 27 11
36 26 22 32 54 28 72 -9 13 -27 15 -28 33 -11 12 11 19 13 19 5 0 -7 9 -32 21
-57 11 -25 19 -55 17 -67 -3 -20 -8 -22 -53 -19 -27 2 -57 10 -65 17 -15 12
-70 22 -180 31 -46 4 -61 10 -89 38 -26 26 -32 38 -26 56 7 24 81 63 103 55 8
-3 17 -5 22 -5z m681 -20 c26 -7 44 -22 63 -50 23 -35 31 -40 65 -40 31 0 43
6 59 27 l19 27 51 -22 c28 -12 60 -22 71 -22 58 0 65 -28 19 -79 l-31 -35 -48
17 -48 18 -41 -30 c-23 -16 -54 -33 -71 -36 -32 -7 -36 -20 -14 -49 13 -17 13
-22 -2 -38 -9 -10 -21 -18 -27 -18 -7 0 -28 -8 -48 -19 l-37 -18 -41 49 -42
48 -63 -6 c-55 -6 -64 -4 -73 12 -14 28 -4 44 29 44 16 0 38 9 49 20 16 16 18
24 9 50 -14 39 -5 77 21 85 14 4 20 15 20 34 0 15 3 31 7 34 9 10 63 8 104 -3z
m5937 -64 c-4 -29 -22 -23 -26 9 -3 19 0 24 13 19 9 -4 15 -15 13 -28z m-5297
-46 c10 -6 19 -18 19 -28 0 -52 -112 -208 -140 -196 -8 4 -37 10 -63 13 -46 6
-50 8 -63 46 -18 52 -17 55 4 55 31 0 61 29 64 63 3 31 5 32 68 43 86 16 88
16 111 4z m6299 0 c0 -5 -4 -10 -10 -10 -5 0 -10 5 -10 10 0 6 5 10 10 10 6 0
10 -4 10 -10z m-200 -20 c0 -5 -4 -10 -9 -10 -6 0 -13 5 -16 10 -3 6 1 10 9
10 9 0 16 -4 16 -10z m-7502 -32 c-2 -21 -8 -33 -18 -33 -10 0 -16 12 -18 33
-3 27 0 32 18 32 18 0 21 -5 18 -32z m7735 -55 c9 -3 17 -9 17 -14 0 -28 -76
-18 -85 12 -10 31 4 42 28 24 12 -9 30 -18 40 -22z m-158 7 c10 -11 26 -22 36
-25 11 -4 19 -15 19 -25 0 -19 -25 -34 -41 -24 -9 5 -49 78 -49 89 0 11 18 4
35 -15z m1375 -21 c0 -5 -7 -9 -15 -9 -15 0 -20 12 -9 23 8 8 24 -1 24 -14z
m-7380 2 c0 -13 -29 -35 -37 -28 -7 8 15 37 28 37 5 0 9 -4 9 -9z m6375 -171
c49 0 63 -18 46 -62 -14 -36 -36 -51 -69 -44 -16 4 -43 0 -65 -9 -20 -8 -41
-15 -47 -15 -20 0 -10 47 16 75 22 23 25 35 20 65 -8 50 3 57 32 20 20 -25 30
-30 67 -30z m-7304 -30 c10 -6 19 -17 19 -24 0 -19 37 -49 52 -42 7 3 21 12
31 18 14 11 19 10 26 -1 15 -24 2 -38 -55 -61 -30 -12 -54 -25 -54 -29 0 -10
81 -85 113 -104 31 -20 35 -37 8 -37 -25 0 -142 62 -155 82 -8 13 -6 22 7 36
17 19 17 20 -16 41 -19 12 -42 33 -51 46 -9 14 -25 25 -37 25 -23 0 -37 26
-22 41 7 7 17 7 31 -2 17 -11 24 -10 44 4 28 19 34 20 59 7z m7809 -111 c0
-69 -15 -70 -39 -4 -10 28 -10 39 -1 50 27 32 40 17 40 -46z m-2972 -2979 c3
-57 7 -68 38 -102 52 -58 47 -68 -33 -68 -98 0 -116 7 -108 39 12 54 78 202
89 198 6 -2 12 -32 14 -67z"/>
<path d="M872 3348 c-5 -7 -30 -67 -55 -133 -128 -341 -150 -385 -192 -385 -8
0 -15 -4 -15 -10 0 -6 37 -10 90 -10 94 0 111 8 60 27 -34 13 -37 32 -16 103
l13 45 101 3 100 3 21 -63 c27 -79 26 -86 -4 -94 -54 -14 -20 -24 80 -24 58 0
105 3 105 8 0 4 -12 14 -28 23 -23 13 -41 51 -115 245 -107 277 -117 295 -145
262z m68 -315 c0 -10 -24 -13 -85 -13 -47 0 -85 1 -85 3 0 2 16 43 36 93 20
49 41 100 46 114 9 23 14 15 49 -80 21 -58 39 -111 39 -117z"/>
<path d="M3251 3338 c-192 -519 -180 -491 -219 -503 -55 -16 -35 -25 58 -25
86 0 117 11 66 24 -34 8 -39 35 -19 97 l18 54 96 3 96 3 22 -61 c26 -71 24
-94 -7 -98 -12 -2 -22 -8 -22 -13 0 -5 47 -9 105 -9 58 0 105 3 105 6 0 3 -13
18 -28 32 -20 20 -53 92 -116 257 -49 127 -93 236 -99 243 -15 20 -47 14 -56
-10z m43 -202 c20 -54 36 -102 36 -107 0 -5 -36 -9 -81 -9 -73 0 -80 2 -75 18
27 73 80 201 82 199 1 -1 19 -47 38 -101z"/>
<path d="M62 3338 c3 -7 15 -15 29 -18 l24 -6 3 -233 2 -233 -30 -11 c-16 -6
-30 -15 -30 -19 0 -4 47 -8 105 -8 58 0 105 4 105 8 0 4 -14 13 -30 19 l-31
12 3 103 3 103 102 3 103 3 0 -104 c0 -106 -7 -127 -42 -127 -10 0 -18 -4 -18
-10 0 -6 43 -10 110 -10 105 0 143 11 81 23 -18 4 -31 14 -35 29 -10 38 -7
418 4 438 5 10 21 21 35 24 53 13 11 26 -85 26 -102 0 -132 -10 -80 -29 l30
-10 0 -110 0 -111 -105 0 -105 0 0 103 c0 109 4 123 34 128 11 2 21 10 24 17
3 9 -22 12 -103 12 -80 0 -106 -3 -103 -12z"/>
<path d="M1206 3341 c-3 -5 8 -14 24 -20 l30 -10 0 -220 c0 -234 -1 -241 -50
-256 -46 -14 -14 -25 75 -25 52 0 95 4 95 8 0 4 -15 14 -34 20 -19 7 -38 20
-42 30 -11 25 -18 402 -7 402 5 0 74 -103 153 -230 l144 -230 38 0 38 0 0 233
c0 253 3 268 56 281 18 5 24 10 17 17 -13 13 -183 7 -183 -6 -1 -5 8 -11 19
-13 10 -2 27 -12 37 -24 17 -17 19 -41 22 -185 2 -91 0 -169 -5 -173 -4 -5
-60 73 -123 172 -160 251 -147 238 -230 238 -38 0 -71 -4 -74 -9z"/>
<path d="M1782 3338 c3 -7 15 -15 29 -18 l24 -6 5 -206 c5 -190 7 -209 26
-235 38 -51 80 -68 170 -68 69 0 85 3 116 25 63 42 71 72 77 276 6 190 11 210
54 216 12 2 22 8 22 13 0 6 -40 11 -93 13 -72 2 -93 0 -90 -10 3 -7 15 -15 29
-18 13 -3 29 -17 36 -30 16 -31 17 -269 2 -339 -18 -85 -94 -128 -180 -102
-69 21 -74 38 -74 260 l0 196 33 15 c18 9 30 19 26 23 -4 4 -54 7 -112 7 -77
0 -103 -3 -100 -12z"/>
<path d="M2366 3343 c-4 -4 8 -14 26 -23 l33 -15 3 -193 c3 -226 -1 -251 -46
-271 -18 -8 -32 -18 -32 -23 0 -4 43 -8 95 -8 96 0 119 10 66 28 -48 17 -52
35 -49 244 l3 192 84 -222 c46 -123 88 -221 94 -219 5 1 39 84 74 182 35 99
73 203 83 230 l19 50 -2 -225 -2 -225 -32 -10 c-59 -17 -35 -25 72 -25 98 0
132 10 85 25 -11 3 -23 18 -26 31 -4 14 -3 121 2 237 9 209 9 212 32 215 12 2
22 10 22 18 0 11 -18 14 -84 14 l-85 0 -19 -53 c-11 -29 -25 -72 -32 -97 -19
-72 -71 -210 -79 -210 -4 0 -14 21 -23 48 -60 180 -102 289 -116 300 -17 13
-153 17 -166 5z"/>
<path d="M3592 3338 c3 -7 15 -15 29 -18 l24 -6 3 -218 c2 -193 0 -221 -14
-237 -10 -11 -25 -19 -36 -19 -10 0 -18 -7 -18 -15 0 -12 17 -15 95 -15 98 0
122 12 66 31 -44 16 -51 50 -51 252 l0 181 54 -85 c30 -46 94 -147 142 -224
48 -77 93 -145 101 -151 8 -7 27 -9 45 -5 l31 6 -2 220 c-1 127 2 231 8 246 6
16 22 31 41 38 53 18 24 31 -70 31 -87 0 -126 -13 -75 -26 14 -3 34 -18 45
-31 18 -23 20 -41 20 -196 0 -146 -2 -169 -14 -157 -7 8 -66 98 -131 200 -65
102 -125 191 -133 198 -22 17 -165 17 -160 0z"/>
<path d="M566 2528 c-8 -13 -48 -113 -89 -223 -125 -334 -265 -693 -301 -768
-39 -86 -61 -107 -115 -114 -42 -6 -67 -25 -56 -43 4 -6 75 -10 196 -10 l190
0 -3 22 c-2 18 -12 24 -47 30 -56 10 -69 21 -76 71 -5 32 2 69 27 152 l33 110
217 3 216 2 15 -42 c88 -252 89 -254 59 -281 -10 -10 -29 -17 -43 -17 -33 0
-53 -15 -46 -34 6 -15 31 -16 224 -14 192 3 218 5 221 19 2 11 -8 21 -30 28
-18 6 -45 23 -60 38 -30 29 -34 38 -273 658 -81 209 -153 392 -161 407 -19 37
-76 40 -98 6z m73 -434 c44 -124 84 -236 87 -250 l6 -24 -186 0 c-180 0 -186
1 -186 20 0 26 180 480 190 480 4 0 44 -102 89 -226z"/>
<path d="M3063 2538 c-6 -7 -43 -101 -83 -208 -139 -374 -293 -765 -323 -823
-33 -64 -52 -78 -112 -86 -32 -5 -41 -11 -43 -28 l-3 -23 191 0 c166 0 191 2
197 16 7 19 -13 34 -48 34 -15 0 -39 10 -54 22 -25 20 -27 25 -23 82 3 34 17
100 32 149 l27 87 217 -2 217 -3 47 -139 c38 -113 45 -144 36 -160 -14 -28
-28 -36 -59 -36 -30 0 -50 -17 -42 -36 4 -11 47 -14 225 -14 l219 0 -3 23 c-2
14 -11 23 -26 25 -48 7 -88 64 -146 214 -30 79 -119 307 -196 508 -78 201
-148 375 -156 388 -16 25 -74 31 -91 10z m37 -353 c82 -223 120 -333 120 -350
0 -13 -25 -15 -185 -15 -157 0 -185 2 -185 15 0 8 40 115 88 237 49 123 92
232 96 242 3 10 8 17 11 15 2 -3 27 -68 55 -144z"/>
<path d="M6643 2538 c-6 -7 -34 -76 -63 -153 -28 -77 -99 -264 -157 -415 -196
-513 -207 -533 -294 -548 -35 -6 -45 -12 -47 -30 l-3 -22 193 2 c173 3 193 5
196 20 2 11 -5 19 -20 22 -13 3 -35 7 -50 10 -50 11 -61 32 -55 105 3 36 17
103 32 149 l26 82 217 -2 217 -3 42 -120 c23 -66 42 -134 42 -152 1 -39 -21
-63 -58 -63 -31 0 -57 -23 -46 -40 4 -6 84 -10 226 -10 l220 0 -3 22 c-2 14
-13 24 -33 29 -49 13 -82 65 -150 239 -35 91 -125 322 -200 514 -74 192 -140
355 -146 363 -14 17 -73 17 -86 1z m73 -454 c46 -126 83 -237 84 -246 0 -17
-15 -18 -185 -18 -157 0 -185 2 -185 15 0 27 185 485 194 482 5 -2 47 -106 92
-233z"/>
<path d="M8253 2535 c-80 -22 -120 -41 -190 -91 -164 -117 -241 -296 -229
-534 9 -185 53 -305 149 -408 100 -105 199 -145 367 -146 105 -1 120 1 172 26
31 14 77 45 101 67 25 23 51 39 58 36 8 -3 28 -25 44 -50 29 -43 56 -62 73
-51 5 3 7 92 4 198 -4 221 -4 222 73 241 32 8 50 17 50 27 0 13 -32 15 -230
15 -197 0 -230 -2 -230 -15 0 -8 9 -16 20 -18 108 -18 121 -38 112 -170 -5
-94 -21 -142 -62 -191 -36 -42 -118 -66 -197 -57 -142 14 -224 109 -263 301
-22 107 -22 354 -1 453 43 205 154 322 303 322 114 0 198 -65 294 -227 32 -54
52 -78 65 -78 18 0 19 9 19 165 l0 165 -24 3 c-13 2 -42 -4 -63 -14 -38 -17
-41 -17 -86 0 -126 48 -229 58 -329 31z"/>
<path d="M9516 2541 c-4 -5 -49 -123 -102 -263 -125 -332 -268 -689 -302 -757
-32 -65 -64 -91 -120 -98 -36 -5 -42 -9 -42 -29 l0 -24 193 0 c107 0 197 3
200 6 11 11 -13 44 -32 44 -10 0 -32 5 -49 11 -61 21 -61 82 -3 264 l19 60
212 0 213 0 44 -130 c23 -71 43 -139 43 -152 0 -27 -35 -53 -71 -53 -26 0 -45
-23 -33 -41 7 -12 441 -12 448 0 10 15 -5 41 -24 41 -26 0 -68 37 -90 80 -11
21 -38 84 -60 141 -22 57 -54 136 -70 174 -16 39 -86 216 -155 395 -69 178
-131 328 -138 332 -17 11 -75 10 -81 -1z m49 -386 c56 -156 115 -325 115 -332
0 -2 -84 -2 -187 -1 -182 3 -188 4 -185 23 5 38 185 486 192 478 4 -5 33 -80
65 -168z"/>
<path d="M3783 2524 c-10 -27 6 -44 42 -44 24 0 43 -8 59 -23 22 -22 24 -34
31 -198 10 -250 2 -707 -14 -744 -19 -46 -61 -84 -100 -91 -44 -8 -62 -21 -54
-40 4 -11 41 -14 204 -14 174 0 200 2 206 16 7 20 -8 30 -56 38 -53 8 -97 55
-111 119 -7 35 -10 183 -8 447 l3 395 83 -130 c46 -71 121 -188 168 -260 46
-71 153 -241 237 -377 168 -272 161 -266 257 -253 27 4 54 13 60 20 7 9 8 46
2 121 -5 60 -9 278 -8 484 1 364 2 376 23 415 21 41 62 68 116 80 18 4 27 12
27 25 0 19 -7 20 -205 20 -198 0 -205 -1 -205 -20 0 -15 9 -21 42 -26 61 -10
114 -61 127 -125 15 -67 15 -729 1 -729 -6 0 -40 46 -76 103 -318 497 -484
755 -500 774 -18 20 -30 22 -182 26 -133 4 -165 2 -169 -9z"/>
<path d="M11370 2532 c-6 -2 -10 -12 -10 -23 0 -19 10 -23 85 -33 49 -7 72
-32 80 -89 3 -23 5 -239 3 -480 l-3 -439 -28 -24 c-18 -15 -41 -24 -62 -24
-47 0 -65 -9 -65 -32 0 -19 7 -19 323 -16 320 4 322 4 391 30 229 88 338 269
337 558 -1 241 -90 414 -259 503 -111 59 -160 66 -490 69 -160 2 -297 2 -302
0z m616 -73 c156 -59 222 -229 211 -549 -5 -169 -17 -224 -70 -323 -33 -63
-90 -117 -153 -143 -24 -11 -78 -19 -140 -22 -100 -4 -101 -4 -107 19 -12 42
-8 998 3 1020 16 29 176 28 256 -2z"/>
<path d="M1290 2510 c0 -16 9 -21 42 -26 24 -4 52 -17 65 -31 l24 -23 -3 -452
c-3 -435 -4 -454 -23 -488 -21 -35 -67 -65 -118 -75 -20 -4 -27 -11 -25 -23 3
-15 24 -17 204 -20 169 -2 203 0 207 12 8 19 -10 32 -55 40 -49 9 -91 45 -108
93 -17 48 -28 863 -12 863 13 0 393 -595 593 -930 53 -88 71 -98 156 -84 l58
9 -4 475 c-2 345 0 487 9 519 15 57 56 97 114 112 34 8 46 16 44 28 -3 14 -27
16 -208 16 -186 0 -205 -2 -208 -17 -3 -14 6 -19 37 -24 60 -10 100 -39 124
-92 21 -45 22 -63 25 -392 2 -312 -2 -389 -22 -370 -5 6 -512 790 -545 843
-12 20 -31 42 -41 47 -10 6 -89 10 -174 10 -149 0 -156 -1 -156 -20z"/>
<path d="M5044 2519 c-10 -18 9 -29 65 -38 32 -5 61 -17 74 -30 22 -22 22 -23
22 -502 l0 -481 -28 -24 c-18 -15 -41 -24 -62 -24 -47 0 -65 -9 -65 -32 0 -19
7 -19 323 -16 320 4 322 4 391 30 229 88 337 265 337 553 0 132 -14 202 -60
300 -58 126 -186 225 -332 260 -80 18 -653 22 -665 4z m622 -60 c146 -55 213
-210 214 -499 0 -155 -11 -223 -52 -325 -60 -149 -143 -205 -315 -213 -57 -3
-103 -3 -104 -1 0 2 -3 232 -5 511 -4 360 -2 513 6 527 10 19 20 21 105 21 72
0 108 -5 151 -21z"/>
<path d="M10200 2512 c0 -23 18 -32 61 -32 18 0 39 -10 55 -25 l25 -25 -3
-484 c-3 -549 2 -515 -85 -526 -40 -4 -49 -9 -51 -27 l-3 -23 241 0 c211 0
241 2 247 16 8 20 -13 34 -54 34 -43 0 -81 19 -90 44 -12 35 -3 450 10 459 17
12 160 1 184 -14 12 -7 33 -31 47 -53 26 -40 35 -67 90 -266 47 -166 103 -230
203 -230 29 0 68 6 86 13 36 16 107 89 107 111 0 26 -21 29 -45 6 -16 -15 -33
-20 -56 -18 -44 4 -60 33 -99 176 -45 167 -95 255 -160 282 -16 7 -30 16 -30
20 0 4 19 13 43 20 165 49 241 136 240 274 0 92 -22 145 -83 199 -87 78 -104
81 -517 85 -354 3 -363 3 -363 -16z m653 -65 c54 -41 79 -98 85 -187 6 -102
-10 -155 -62 -206 -52 -52 -93 -64 -227 -64 l-106 0 -6 152 c-10 228 -9 312 6
327 9 9 46 12 143 9 125 -3 132 -4 167 -31z"/>
<path d="M12544 2519 c-10 -18 9 -29 65 -38 32 -5 61 -17 74 -30 22 -21 22
-25 25 -474 3 -490 1 -520 -48 -544 -14 -7 -43 -13 -66 -13 -43 0 -66 -14 -57
-36 4 -12 83 -14 463 -14 404 0 460 2 474 16 13 13 16 42 16 160 0 131 -2 144
-18 144 -12 0 -27 -22 -49 -67 -43 -91 -83 -136 -149 -169 -51 -25 -68 -28
-203 -32 -122 -4 -148 -2 -159 10 -9 12 -12 76 -10 259 l3 244 60 3 c110 6
158 -27 210 -143 42 -97 50 -75 53 163 2 197 1 212 -15 212 -12 0 -30 -23 -53
-67 -49 -94 -72 -108 -173 -108 l-82 0 0 240 0 240 160 3 c184 3 219 -5 277
-66 20 -20 52 -64 70 -97 51 -91 63 -82 63 50 0 61 -4 122 -8 138 l-7 27 -455
0 c-316 0 -456 -3 -461 -11z"/>
<path d="M13647 2523 c-16 -16 -4 -31 29 -38 58 -10 82 -26 94 -58 14 -42 14
-809 -1 -877 -14 -66 -57 -117 -107 -126 -45 -8 -63 -21 -55 -40 4 -11 41 -14
204 -14 174 0 200 2 206 16 7 20 -8 30 -56 38 -53 8 -97 55 -110 117 -13 57
-16 839 -3 839 4 0 23 -26 43 -58 20 -31 139 -221 266 -422 126 -201 252 -402
279 -447 38 -65 54 -84 77 -89 38 -8 124 5 137 21 8 10 8 48 0 142 -7 76 -10
271 -8 478 3 295 6 356 19 385 19 42 72 90 99 90 32 0 50 11 50 31 0 18 -11
19 -205 19 -197 0 -205 -1 -205 -20 0 -14 9 -21 38 -26 54 -9 97 -39 118 -82
17 -34 19 -70 22 -404 2 -256 0 -368 -8 -368 -6 0 -35 37 -64 83 -29 45 -158
244 -286 442 -128 198 -237 363 -244 367 -14 10 -320 10 -329 1z"/>
</g>
</svg>
